{"glyphs":{"0":{"ha":1083,"x_min":74,"x_max":1093,"o":"m 85 706 l 85 706 q 154 922 106 835 l 154 922 q 326 1092 215 1033 l 326 1092 q 656 1160 456 1160 l 656 1160 q 1006 1058 899 1160 l 1006 1058 q 1093 821 1093 975 l 1093 821 q 1089 750 1093 785 l 1089 750 q 1082 706 1083 719 l 1082 706 q 981 390 1057 549 l 981 390 q 771 101 893 211 l 771 101 q 468 -25 629 -25 l 468 -25 q 163 165 268 -25 l 163 165 q 74 560 74 326 l 74 560 q 85 706 74 632 z m 769 683 l 769 683 q 773 715 772 694 q 775 746 774 735 l 775 746 q 738 857 775 819 q 614 894 700 894 l 614 894 q 460 841 513 894 q 392 683 408 788 l 392 683 q 385 575 385 632 l 385 575 q 413 361 385 446 l 413 361 q 513 256 447 256 l 513 256 q 678 415 594 256 l 678 415 q 769 683 749 551 z "},"1":{"ha":583,"x_min":56,"x_max":579,"o":"m 165 1135 l 579 1135 l 400 0 l 103 0 l 242 879 l 56 879 l 165 1135 z "},"2":{"ha":806,"x_min":-97,"x_max":804,"o":"m 210 1135 l 565 1135 q 754 1074 693 1135 l 754 1074 q 804 946 804 1024 l 804 946 q 804 928 804 936 l 804 928 q 801 908 801 914 l 801 908 q 754 778 792 846 l 754 778 q 676 657 743 758 l 676 657 l 407 256 l 728 256 l 618 0 l -97 0 l 406 747 q 435 791 419 767 q 453 832 450 815 l 453 832 q 435 870 457 861 q 375 879 414 879 l 375 879 l 349 879 l 100 879 l 210 1135 z "},"3":{"ha":833,"x_min":-24,"x_max":824,"o":"m 203 1135 l 529 1135 q 763 1071 689 1135 l 763 1071 q 824 924 824 1018 l 824 924 q 819 872 824 897 l 819 872 q 751 726 808 796 l 751 726 q 621 606 711 676 l 621 606 q 722 485 690 538 l 722 485 q 765 333 765 414 l 765 333 q 761 281 765 308 l 761 281 q 667 97 744 172 l 667 97 q 396 0 567 0 l 396 0 l 6 0 l -24 256 l 267 256 l 299 256 q 379 265 351 256 l 379 265 q 431 322 424 281 l 431 322 q 347 474 439 381 l 347 474 q 203 597 313 508 l 203 597 l 307 668 q 406 736 372 710 l 406 736 q 475 826 468 788 l 475 826 q 454 871 481 863 q 344 879 428 879 l 344 879 l 93 879 l 203 1135 z "},"4":{"ha":889,"x_min":-8,"x_max":881,"o":"m 521 503 l 556 718 l 803 718 l 768 503 l 881 503 l 840 247 l 728 247 l 689 0 l 442 0 l 481 247 l -8 247 l 28 474 l 417 1135 l 731 1135 l 356 503 l 521 503 z "},"5":{"ha":833,"x_min":42,"x_max":801,"o":"m 285 525 l 88 525 l 217 1135 l 772 1135 l 801 879 l 444 879 l 421 764 l 508 764 q 729 693 661 764 l 729 693 q 786 528 786 635 l 786 528 q 781 458 786 490 l 781 458 q 722 292 767 369 l 722 292 q 517 96 651 169 l 517 96 q 71 0 339 0 l 71 0 l 42 256 q 368 314 257 256 l 368 314 q 467 431 456 360 l 467 431 q 468 450 468 438 l 468 450 q 438 506 468 486 q 325 525 408 525 l 325 525 l 285 525 z "},"6":{"ha":917,"x_min":15,"x_max":892,"o":"m 483 1135 l 828 1135 q 764 1060 821 1128 l 764 1060 q 639 910 679 960 l 639 910 q 525 758 561 813 l 525 758 q 785 679 685 758 l 785 679 q 892 447 892 594 l 892 447 q 892 415 892 431 l 892 415 q 886 381 888 392 l 886 381 q 747 103 860 210 l 747 103 q 381 -25 613 -25 l 381 -25 q 107 56 199 -25 q 15 282 15 138 l 15 282 q 16 309 15 296 q 22 365 17 322 l 22 365 q 119 638 42 492 l 119 638 q 292 900 182 754 l 292 900 q 483 1135 358 989 l 483 1135 z m 419 515 l 376 515 q 324 385 333 450 l 324 385 q 321 356 321 365 l 321 356 q 350 269 321 303 q 433 236 379 236 l 433 236 q 535 272 493 236 q 586 369 576 308 l 586 369 q 588 394 588 378 l 588 394 q 539 485 588 456 q 419 515 490 515 l 419 515 z "},"7":{"ha":750,"x_min":47,"x_max":883,"o":"m 188 1135 l 883 1135 l 357 0 l 47 0 l 457 879 l 78 879 l 188 1135 z "},"8":{"ha":944,"x_min":24,"x_max":938,"o":"m 331 300 l 331 300 q 365 246 325 264 l 365 246 q 439 232 396 232 l 439 232 q 517 244 483 232 l 517 244 q 569 300 564 263 l 569 300 q 540 385 576 339 l 540 385 q 474 449 519 411 l 474 449 q 389 385 418 411 l 389 385 q 331 300 338 338 z m 625 858 l 625 858 q 606 903 629 890 q 546 917 582 917 l 546 917 q 480 905 507 917 q 447 858 453 893 l 447 858 q 468 793 442 826 l 468 793 q 521 746 486 771 l 521 746 q 583 792 565 775 l 583 792 q 625 858 619 825 z m 151 878 l 151 878 q 239 1058 169 993 l 239 1058 q 586 1160 347 1160 l 586 1160 q 875 1088 790 1160 l 875 1088 q 938 936 938 1033 l 938 936 q 935 897 938 910 q 932 878 932 883 l 932 878 q 885 754 921 808 l 885 754 q 721 601 843 692 l 721 601 q 825 483 793 536 l 825 483 q 869 331 869 411 l 869 331 q 865 281 869 306 l 865 281 q 768 81 846 151 l 768 81 q 399 -25 651 -25 l 399 -25 q 92 51 182 -25 l 92 51 q 24 215 24 108 l 24 215 q 24 241 24 232 q 29 281 25 250 l 29 281 q 115 464 44 381 l 115 464 q 276 601 168 525 l 276 601 q 185 703 210 664 l 185 703 q 147 829 147 760 l 147 829 q 151 878 147 853 z "},"9":{"ha":917,"x_min":68,"x_max":949,"o":"m 139 0 l 110 256 q 292 276 213 256 l 292 276 q 465 368 396 304 l 465 368 q 170 495 272 400 q 68 735 68 590 l 68 735 q 68 776 68 756 l 68 776 q 74 804 72 796 l 74 804 q 200 1042 96 947 l 200 1042 q 551 1160 329 1160 l 551 1160 q 856 1072 757 1160 l 856 1072 q 949 831 949 990 l 949 831 q 947 782 949 808 q 939 721 944 756 l 939 721 q 688 229 893 435 l 688 229 q 139 0 458 0 l 139 0 z m 643 736 l 643 736 q 646 769 646 758 l 646 769 q 614 858 646 825 q 521 892 582 892 l 521 892 q 427 865 465 892 q 381 786 389 839 l 381 786 q 379 765 379 779 l 379 765 q 460 657 379 699 l 460 657 q 606 614 519 626 l 606 614 q 628 675 618 644 q 643 736 638 706 z "},"$":{"ha":833,"x_min":36,"x_max":819,"o":"m 490 763 l 661 533 q 731 428 711 468 l 731 428 q 761 303 761 367 l 761 303 q 758 263 761 276 l 758 263 q 685 107 743 172 l 685 107 q 465 4 604 18 l 465 4 l 443 -136 l 196 -136 l 218 0 l 65 0 l 36 256 l 306 256 l 335 256 q 399 265 379 256 q 421 293 418 275 l 421 293 q 413 336 425 315 l 413 336 q 385 372 408 343 l 385 372 l 219 600 q 140 734 158 685 q 121 833 121 783 l 121 833 q 121 851 121 842 l 121 851 q 124 872 124 865 l 124 872 q 193 1024 139 960 l 193 1024 q 397 1129 267 1110 l 397 1129 l 417 1250 l 664 1250 l 644 1135 l 790 1135 l 819 879 l 569 879 l 540 879 q 476 869 496 879 q 454 842 457 860 l 454 842 q 463 799 450 819 l 463 799 q 490 763 467 792 l 490 763 z "},"%":{"ha":1611,"x_min":99,"x_max":1579,"o":"m 943 410 l 943 410 q 985 538 954 483 q 1079 631 1017 593 l 1079 631 q 1181 668 1124 658 q 1300 678 1238 678 l 1300 678 q 1418 669 1368 678 q 1506 631 1468 660 q 1562 561 1544 601 q 1579 468 1579 521 l 1579 468 q 1577 438 1579 456 q 1574 410 1575 419 l 1574 410 q 1451 125 1549 251 l 1451 125 q 1189 -25 1338 -25 l 1189 -25 q 994 88 1063 -25 l 994 88 q 936 324 936 183 l 936 324 q 938 364 936 349 q 943 410 939 379 z m 1369 403 l 1369 403 q 1372 433 1372 425 l 1372 433 q 1275 517 1372 517 l 1275 517 q 1144 403 1163 517 l 1144 403 q 1140 335 1140 379 l 1140 335 q 1158 206 1140 263 q 1217 150 1175 150 l 1217 150 q 1321 256 1271 150 l 1321 256 q 1369 403 1360 336 z m 1176 1135 l 613 0 l 451 0 l 1015 1135 l 1176 1135 z m 106 892 l 106 892 q 148 1020 117 965 q 242 1113 179 1075 l 242 1113 q 343 1150 286 1140 q 463 1160 400 1160 l 463 1160 q 581 1151 531 1160 q 669 1113 631 1142 q 724 1043 707 1083 q 742 950 742 1003 l 742 950 q 740 919 742 938 q 736 892 738 901 l 736 892 q 614 607 711 733 l 614 607 q 351 457 500 457 l 351 457 q 157 569 225 457 l 157 569 q 99 806 99 665 l 99 806 q 100 846 99 831 q 106 892 101 861 z m 532 885 l 532 885 q 535 915 535 907 l 535 915 q 438 999 535 999 l 438 999 q 307 885 325 999 l 307 885 q 303 817 303 861 l 303 817 q 320 688 303 744 q 379 632 338 632 l 379 632 q 483 738 433 632 l 483 738 q 532 885 522 818 z "},"&":{"ha":1111,"x_min":25,"x_max":1090,"o":"m 1090 740 l 1050 485 l 985 485 l 908 0 l 369 0 q 96 71 182 0 l 96 71 q 25 229 25 129 l 25 229 q 29 278 25 253 l 29 278 q 117 471 44 379 l 117 471 q 282 617 179 551 l 282 617 q 203 714 228 671 l 203 714 q 169 835 169 771 l 169 835 q 169 853 169 843 l 169 853 q 172 872 172 867 l 172 872 q 267 1050 190 985 l 267 1050 q 546 1135 364 1135 l 546 1135 l 924 1135 l 953 879 l 647 879 q 539 876 571 879 q 500 826 507 872 l 500 826 q 540 736 493 788 l 540 736 q 618 668 557 718 l 618 668 l 700 597 q 508 488 599 553 l 508 488 q 371 324 383 397 l 371 324 q 406 264 364 279 l 406 264 q 489 256 429 256 l 489 256 l 660 256 l 736 740 l 1090 740 z "},"(":{"ha":722,"x_min":164,"x_max":747,"o":"m 557 -207 l 288 -328 q 164 215 164 -68 l 164 215 q 182 435 164 326 l 182 435 q 296 810 213 631 l 296 810 q 513 1160 372 975 l 513 1160 l 747 1039 q 578 740 644 886 l 578 740 q 479 426 503 575 l 479 426 q 467 265 467 344 l 467 265 q 490 30 467 147 q 557 -207 514 -87 l 557 -207 z "},")":{"ha":722,"x_min":-40,"x_max":557,"o":"m 193 -328 l -40 -207 q 138 101 68 -50 l 138 101 q 240 426 215 271 l 240 426 q 253 585 253 506 l 253 585 q 231 808 253 701 q 164 1039 208 915 l 164 1039 l 438 1160 q 527 899 497 1028 q 557 635 557 769 l 557 635 q 540 435 557 539 l 540 435 q 193 -328 475 29 l 193 -328 z "},"a":{"ha":861,"x_min":33,"x_max":847,"o":"m 847 839 l 714 0 l 446 0 q 150 125 267 0 q 33 433 33 250 l 33 433 q 34 462 33 449 q 40 517 35 475 l 40 517 q 149 740 63 660 l 149 740 q 440 839 253 839 l 440 839 l 847 839 z m 483 226 l 544 613 l 458 613 q 375 599 404 613 l 375 599 q 310 497 322 572 l 310 497 q 306 451 306 474 l 306 451 q 353 301 306 365 q 483 226 401 238 l 483 226 z "},"b":{"ha":861,"x_min":8,"x_max":851,"o":"m 454 1135 l 408 839 l 547 839 q 786 764 710 839 l 786 764 q 851 586 851 700 l 851 586 q 851 544 851 565 l 851 544 q 846 517 847 525 l 846 517 q 646 153 813 306 q 283 0 479 0 l 283 0 l 8 0 l 188 1135 l 454 1135 z m 372 613 l 311 226 q 481 319 408 239 q 571 497 554 399 l 571 497 q 574 526 574 519 l 574 526 q 513 607 574 593 l 513 607 q 458 613 489 613 l 458 613 l 372 613 z "},"c":{"ha":639,"x_min":33,"x_max":639,"o":"m 608 839 l 639 613 l 458 613 q 375 599 404 613 l 375 599 q 310 497 322 572 l 310 497 q 308 475 308 488 q 307 456 307 463 l 307 456 q 360 296 307 365 q 497 226 414 226 l 497 226 l 592 226 l 489 0 l 446 0 q 150 125 267 0 q 33 433 33 250 l 33 433 q 34 462 33 449 q 40 517 35 475 l 40 517 q 149 740 63 660 l 149 740 q 440 839 253 839 l 440 839 l 608 839 z "},"d":{"ha":861,"x_min":33,"x_max":901,"o":"m 635 1135 l 901 1135 l 722 0 l 446 0 q 150 125 267 0 q 33 433 33 250 l 33 433 q 34 462 33 449 q 40 517 35 475 l 40 517 q 149 740 63 660 l 149 740 q 440 839 253 839 l 440 839 l 589 839 l 635 1135 z m 553 613 l 458 613 q 375 599 404 613 l 375 599 q 310 497 322 572 l 310 497 q 306 451 306 474 l 306 451 q 353 301 306 365 q 483 226 401 238 l 483 226 l 492 226 l 553 613 z "},"e":{"ha":806,"x_min":33,"x_max":818,"o":"m 710 226 l 607 0 l 446 0 q 150 125 267 0 q 33 433 33 250 l 33 433 q 34 462 33 449 q 40 517 35 475 l 40 517 q 172 778 71 697 q 479 858 274 858 l 479 858 l 535 858 q 769 796 700 858 l 769 796 q 818 679 818 753 l 818 679 q 815 644 818 658 q 813 626 813 631 l 813 626 q 679 396 793 501 l 679 396 q 449 242 594 317 l 449 242 q 530 229 488 232 q 604 226 572 226 l 604 226 l 710 226 z m 460 632 l 460 632 q 311 507 331 632 l 311 507 q 307 461 307 483 l 307 461 q 308 439 307 447 q 313 407 308 431 l 313 407 q 443 482 385 440 l 443 482 q 535 589 528 542 l 535 589 q 512 627 540 622 q 460 632 483 632 z "},"f":{"ha":528,"x_min":24,"x_max":633,"o":"m 122 619 l 64 619 l 99 839 l 157 839 q 229 1053 157 976 l 229 1053 q 460 1135 307 1135 l 460 1135 l 601 1135 l 633 908 l 535 908 l 503 908 q 450 899 465 908 l 450 899 q 424 839 428 883 l 424 839 l 581 839 l 546 619 l 389 619 l 290 0 l 24 0 l 122 619 z "},"g":{"ha":861,"x_min":17,"x_max":847,"o":"m 847 839 l 715 7 q 609 -231 688 -167 q 344 -296 531 -296 l 344 -296 l 49 -296 l 17 -69 l 317 -69 q 356 -71 343 -71 l 356 -71 q 414 -60 394 -71 l 414 -60 q 447 0 440 -44 l 447 0 q 151 124 268 0 q 33 433 33 249 l 33 433 q 34 462 33 449 q 40 517 35 475 l 40 517 q 149 740 63 660 l 149 740 q 440 839 253 839 l 440 839 l 847 839 z m 544 613 l 458 613 q 375 599 404 613 l 375 599 q 310 497 322 572 l 310 497 q 306 451 306 474 l 306 451 q 353 301 306 365 q 483 226 401 238 l 483 226 l 544 613 z "},"h":{"ha":861,"x_min":4,"x_max":810,"o":"m 450 1135 l 404 839 l 551 839 q 750 788 690 839 q 810 624 810 736 l 810 624 q 808 578 810 604 q 800 517 806 551 l 800 517 l 718 0 l 451 0 l 526 478 q 533 551 533 529 l 533 551 q 514 600 533 588 q 432 613 494 613 l 432 613 l 368 613 l 271 0 l 4 0 l 183 1135 l 450 1135 z "},"i":{"ha":417,"x_min":6,"x_max":451,"o":"m 406 839 l 272 0 l 6 0 l 139 839 l 406 839 z m 451 1135 l 417 908 l 150 908 l 185 1135 l 451 1135 z "},"j":{"ha":444,"x_min":-136,"x_max":478,"o":"m 432 839 l 326 178 q 231 -108 300 7 l 231 -108 q 49 -312 174 -203 l 49 -312 l -136 -162 q -3 -2 -51 -87 q 65 207 44 83 l 65 207 l 165 839 l 432 839 z m 478 1135 l 443 908 l 176 908 l 211 1135 l 478 1135 z "},"k":{"ha":833,"x_min":8,"x_max":868,"o":"m 454 1135 l 275 0 l 8 0 l 188 1135 l 454 1135 z m 868 839 l 636 471 l 772 0 l 478 0 l 350 463 l 578 839 l 868 839 z "},"l":{"ha":417,"x_min":6,"x_max":451,"o":"m 451 1135 l 272 0 l 6 0 l 185 1135 l 451 1135 z "},"m":{"ha":1250,"x_min":6,"x_max":1196,"o":"m 139 839 l 938 839 q 1136 788 1076 839 q 1196 624 1196 736 l 1196 624 q 1194 578 1196 604 q 1186 517 1192 551 l 1186 517 l 1104 0 l 844 0 l 919 478 q 926 551 926 529 l 926 551 q 907 600 926 588 q 825 613 888 613 l 825 613 l 782 613 l 685 0 l 425 0 l 522 613 l 363 613 l 265 0 l 6 0 l 139 839 z "},"n":{"ha":861,"x_min":4,"x_max":810,"o":"m 138 839 l 551 839 q 750 788 690 839 q 810 624 810 736 l 810 624 q 808 578 810 604 q 800 517 806 551 l 800 517 l 718 0 l 451 0 l 526 478 q 533 551 533 529 l 533 551 q 514 600 533 588 q 432 613 494 613 l 432 613 l 368 613 l 271 0 l 4 0 l 138 839 z "},"o":{"ha":861,"x_min":36,"x_max":854,"o":"m 439 858 l 556 858 q 803 769 729 858 l 803 769 q 854 607 854 707 l 854 607 q 851 572 854 596 q 849 540 849 547 l 849 540 q 682 158 814 325 l 682 158 q 357 -25 536 -25 l 357 -25 q 117 114 206 -25 l 117 114 q 36 425 36 240 l 36 425 q 38 478 36 450 q 46 540 40 507 l 46 540 q 164 769 68 686 l 164 769 q 439 858 265 858 l 439 858 z m 572 517 l 572 517 q 575 544 575 536 l 575 544 q 461 632 575 632 l 461 632 q 314 517 332 632 l 314 517 q 308 463 310 496 q 307 429 307 431 l 307 429 q 335 278 307 339 q 396 217 363 217 l 396 217 q 492 300 438 217 l 492 300 q 572 517 553 394 z "},"p":{"ha":861,"x_min":-37,"x_max":851,"o":"m 142 839 l 547 839 q 786 764 710 839 l 786 764 q 851 586 851 700 l 851 586 q 851 544 851 565 l 851 544 q 846 517 847 525 l 846 517 q 674 186 815 328 l 674 186 q 272 -19 518 31 l 272 -19 l 229 -290 l -37 -290 l 142 839 z m 372 613 l 311 226 q 481 319 408 239 q 571 497 554 399 l 571 497 q 572 515 572 507 q 572 525 572 522 l 572 525 q 546 590 572 568 q 457 613 519 613 l 457 613 l 372 613 z "},"q":{"ha":861,"x_min":4,"x_max":853,"o":"m 853 839 l 674 -290 l 407 -290 l 453 0 l 307 0 q 69 74 144 0 l 69 74 q 4 251 4 138 l 4 251 q 4 294 4 272 l 4 294 q 10 322 8 314 l 10 322 q 211 686 43 533 q 579 839 379 839 l 579 839 l 853 839 z m 489 226 l 550 613 l 544 613 q 374 519 447 600 q 285 342 300 439 l 285 342 q 282 313 282 319 l 282 313 q 343 232 282 246 l 343 232 q 397 226 367 226 l 397 226 l 489 226 z "},"r":{"ha":556,"x_min":11,"x_max":589,"o":"m 144 839 l 400 839 l 392 790 q 484 842 436 826 q 589 858 532 858 l 589 858 l 550 618 q 445 596 494 618 q 361 528 396 574 l 361 528 l 278 0 l 11 0 l 144 839 z "},"s":{"ha":611,"x_min":-7,"x_max":578,"o":"m 546 839 l 578 619 l 458 619 q 396 613 413 619 q 376 588 379 607 l 376 588 q 382 565 375 578 q 392 546 389 551 l 392 546 l 486 397 q 524 322 510 361 q 539 242 539 283 l 539 242 q 536 206 539 218 l 536 206 q 456 60 524 121 q 294 0 389 0 l 294 0 l 24 0 l -7 226 l 140 226 q 166 225 147 226 q 189 224 185 224 l 189 224 q 219 226 206 224 q 235 246 232 229 l 235 246 q 226 281 236 260 l 226 281 q 207 311 211 304 l 207 311 l 118 457 q 81 529 92 500 l 81 529 q 64 611 64 571 l 64 611 q 64 628 64 619 l 64 628 q 67 646 67 640 l 67 646 q 129 764 76 710 l 129 764 q 322 839 203 839 l 322 839 l 546 839 z "},"t":{"ha":528,"x_min":53,"x_max":558,"o":"m 456 1082 l 418 839 l 558 839 l 524 619 l 383 619 l 332 300 q 331 279 331 293 l 331 279 q 343 240 331 254 q 389 226 356 226 l 389 226 l 494 226 l 392 0 l 271 0 q 114 39 167 0 l 114 39 q 53 188 53 83 l 53 188 q 53 215 53 204 q 58 257 53 225 l 58 257 l 117 619 l 57 619 l 92 839 l 151 839 l 176 1003 l 456 1082 z "},"u":{"ha":861,"x_min":7,"x_max":856,"o":"m 856 839 l 722 0 l 296 0 q 69 74 140 0 l 69 74 q 7 260 7 138 l 7 260 q 15 350 7 301 l 15 350 q 101 600 31 454 l 101 600 q 236 839 153 706 l 236 839 l 510 839 q 431 689 469 764 l 431 689 q 349 522 371 575 l 349 522 q 300 368 310 432 l 300 368 q 296 326 296 344 l 296 326 q 342 242 296 263 l 342 242 q 463 226 376 226 l 463 226 l 492 226 l 589 839 l 856 839 z "},"v":{"ha":778,"x_min":35,"x_max":871,"o":"m 871 839 l 474 0 l 165 0 l 35 839 l 315 839 l 365 301 l 590 839 l 871 839 z "},"w":{"ha":1222,"x_min":35,"x_max":1314,"o":"m 1314 839 l 954 0 l 667 0 l 624 507 l 415 0 l 128 0 l 35 839 l 319 839 l 332 274 l 549 839 l 800 839 l 832 274 l 1029 839 l 1314 839 z "},"x":{"ha":722,"x_min":-122,"x_max":811,"o":"m 386 588 l 510 839 l 811 839 l 539 449 l 706 0 l 396 0 l 340 300 l 188 0 l -122 0 l 186 449 l 39 839 l 340 839 l 386 588 z "},"y":{"ha":778,"x_min":15,"x_max":881,"o":"m 881 839 l 301 -289 l 15 -289 l 203 72 l 25 839 l 342 839 l 399 442 l 586 839 l 881 839 z "},"z":{"ha":667,"x_min":-83,"x_max":729,"o":"m 154 839 l 729 839 l 347 226 l 615 226 l 513 0 l -83 0 l 304 619 l 53 619 l 154 839 z "},"A":{"ha":1056,"x_min":18,"x_max":1081,"o":"m 1025 844 l 892 0 l 594 0 l 651 360 l 326 360 q 319 275 319 314 l 319 275 q 337 137 319 207 q 383 0 354 67 l 383 0 l 117 -160 q 18 261 18 35 l 18 261 q 20 341 18 318 q 29 404 22 364 l 29 404 q 124 697 54 563 l 124 697 q 319 949 199 844 l 319 949 q 600 1101 446 1060 l 600 1101 q 906 1135 721 1135 l 906 1135 l 1051 1135 l 1081 879 l 847 879 q 522 785 639 879 l 522 785 q 396 615 461 735 l 396 615 l 692 615 l 728 844 l 1025 844 z "},"B":{"ha":1083,"x_min":32,"x_max":1056,"o":"m 579 0 l 32 0 l 165 844 l 463 844 l 369 256 l 540 256 q 625 264 597 256 l 625 264 q 681 324 674 279 l 681 324 q 682 340 682 329 l 682 340 q 589 494 682 411 l 589 494 q 438 597 522 554 l 438 597 l 542 668 q 640 736 607 710 l 640 736 q 710 826 703 788 l 710 826 q 689 871 715 863 q 579 879 663 879 l 579 879 l 115 879 l 225 1135 l 761 1135 q 994 1071 921 1135 l 994 1071 q 1056 924 1056 1018 l 1056 924 q 1051 872 1056 897 l 1051 872 q 985 729 1040 796 l 985 729 q 861 617 943 679 l 861 617 q 972 488 931 561 q 1013 331 1013 415 l 1013 331 q 1008 278 1013 306 l 1008 278 q 903 90 989 161 l 903 90 q 579 0 792 0 l 579 0 z "},"C":{"ha":806,"x_min":67,"x_max":861,"o":"m 778 256 l 668 0 l 617 0 q 214 168 367 0 l 214 168 q 67 574 67 329 l 67 574 q 76 690 67 633 l 76 690 q 224 999 107 883 l 224 999 q 600 1135 363 1135 l 600 1135 l 832 1135 l 861 879 l 629 879 q 494 853 546 879 l 494 853 q 376 664 397 803 l 376 664 q 372 630 374 649 q 371 594 371 611 l 371 594 q 474 353 371 443 l 474 353 q 778 256 583 256 l 778 256 z "},"D":{"ha":1083,"x_min":32,"x_max":1100,"o":"m 274 0 l 32 0 l 165 844 l 463 844 l 369 256 q 642 383 518 256 l 642 383 q 783 664 758 504 l 783 664 q 788 719 788 696 l 788 719 q 713 858 788 822 l 713 858 q 597 879 669 879 l 597 879 l 115 879 l 225 1135 l 707 1135 q 1013 1032 913 1135 l 1013 1032 q 1100 786 1100 942 l 1100 786 q 1092 690 1100 739 l 1092 690 q 799 185 1042 381 l 799 185 q 274 0 568 0 l 274 0 z "},"E":{"ha":889,"x_min":28,"x_max":921,"o":"m 892 1135 l 921 879 l 464 879 l 438 711 l 853 711 l 743 456 l 397 456 l 365 256 l 853 256 l 743 0 l 28 0 l 207 1135 l 892 1135 z "},"F":{"ha":833,"x_min":28,"x_max":908,"o":"m 879 1135 l 908 879 l 464 879 l 436 697 l 838 697 l 726 442 l 394 442 l 350 161 q 344 119 346 133 l 344 119 q 339 49 339 78 l 339 49 q 343 0 339 25 l 343 0 l 46 -172 q 28 -53 28 -118 l 28 -53 q 30 5 28 -15 q 40 78 32 25 l 40 78 l 207 1135 l 879 1135 z "},"G":{"ha":1056,"x_min":67,"x_max":1042,"o":"m 660 256 l 701 521 l 589 521 l 631 776 l 1040 776 l 917 0 l 675 0 q 243 150 413 0 l 243 150 q 67 568 67 307 l 67 568 q 76 690 67 631 l 76 690 q 224 999 107 883 l 224 999 q 600 1135 363 1135 l 600 1135 l 1013 1135 l 1042 879 l 629 879 q 494 853 546 879 l 494 853 q 376 664 397 803 l 376 664 q 371 594 371 632 l 371 594 q 447 358 371 454 l 447 358 q 660 256 529 256 l 660 256 z "},"H":{"ha":1111,"x_min":32,"x_max":1118,"o":"m 1118 1135 l 939 0 l 642 0 l 724 521 l 411 521 l 354 161 q 349 119 350 133 l 349 119 q 343 49 343 78 l 343 49 q 347 0 343 25 l 347 0 l 50 -172 q 32 -53 32 -118 l 32 -53 q 34 5 32 -15 q 44 78 36 25 l 44 78 l 211 1135 l 508 1135 l 453 776 l 765 776 l 821 1135 l 1118 1135 z "},"I":{"ha":500,"x_min":32,"x_max":508,"o":"m 508 1135 l 329 0 l 32 0 l 211 1135 l 508 1135 z "},"J":{"ha":639,"x_min":-89,"x_max":646,"o":"m 190 1135 l 646 1135 l 508 264 q 361 -97 471 22 l 361 -97 q -7 -314 258 -208 l -7 -314 l -89 -82 q 133 56 78 -10 q 214 276 189 122 l 214 276 l 308 879 l 81 879 l 190 1135 z "},"K":{"ha":1000,"x_min":28,"x_max":1110,"o":"m 504 1135 l 325 0 l 28 0 l 207 1135 l 504 1135 z m 1110 1135 l 760 635 l 985 0 l 631 0 l 426 624 l 775 1135 l 1110 1135 z "},"L":{"ha":750,"x_min":28,"x_max":756,"o":"m 504 1135 l 365 256 l 756 256 l 646 0 l 28 0 l 207 1135 l 504 1135 z "},"M":{"ha":1250,"x_min":29,"x_max":1261,"o":"m 1261 1135 l 1082 0 l 785 0 l 893 686 l 613 381 l 438 686 l 326 0 l 29 0 l 208 1135 l 490 1135 l 679 801 l 979 1135 l 1261 1135 z "},"N":{"ha":1111,"x_min":31,"x_max":1121,"o":"m 1121 1135 l 942 0 l 644 0 l 697 335 l 444 717 l 328 0 l 31 0 l 210 1135 l 493 1135 l 763 749 l 824 1135 l 1121 1135 z "},"O":{"ha":1111,"x_min":71,"x_max":1124,"o":"m 82 708 l 82 708 q 240 1026 114 914 l 240 1026 q 669 1160 390 1160 l 669 1160 q 1025 1058 911 1160 l 1025 1058 q 1124 808 1124 971 l 1124 808 q 1115 708 1124 761 l 1115 708 q 913 229 1072 444 l 913 229 q 482 -25 724 -25 l 482 -25 q 165 164 276 -25 l 165 164 q 71 560 71 324 l 71 560 q 82 708 71 633 z m 803 694 l 803 694 q 808 757 808 726 l 808 757 q 766 863 808 832 q 628 894 724 894 l 628 894 q 462 851 517 894 q 389 694 407 807 l 389 694 q 381 575 381 636 l 381 575 q 419 341 381 439 q 525 243 458 243 l 525 243 q 692 390 606 243 q 803 694 778 536 z "},"P":{"ha":972,"x_min":32,"x_max":1014,"o":"m 369 251 l 329 0 l 32 0 l 165 844 l 463 844 l 415 544 q 585 646 513 590 l 585 646 q 700 793 690 726 l 700 793 q 701 811 701 800 l 701 811 q 636 875 701 864 l 636 875 q 568 879 613 879 l 568 879 l 115 879 l 225 1135 l 686 1135 q 943 1058 860 1135 l 943 1058 q 1014 878 1014 993 l 1014 878 q 1010 822 1014 850 l 1010 822 q 850 539 986 672 l 850 539 q 369 251 686 378 l 369 251 z "},"Q":{"ha":1111,"x_min":68,"x_max":1117,"o":"m 1043 256 l 933 0 l 485 0 q 175 158 288 0 l 175 158 q 68 549 68 308 l 68 549 q 81 708 68 626 l 81 708 q 239 1026 113 914 l 239 1026 q 668 1160 389 1160 l 668 1160 q 1021 1060 910 1160 l 1021 1060 q 1117 811 1117 974 l 1117 811 q 1108 708 1117 763 l 1108 708 q 1032 469 1089 586 q 888 256 975 351 l 888 256 l 1043 256 z m 801 694 l 801 694 q 807 757 807 726 l 807 757 q 765 863 807 832 q 626 894 722 894 l 626 894 q 456 850 511 894 q 382 694 400 806 l 382 694 q 378 656 379 671 q 376 613 376 642 l 376 613 q 407 388 376 482 l 407 388 q 524 265 446 265 l 524 265 q 708 439 615 265 l 708 439 q 801 694 783 581 z "},"R":{"ha":1056,"x_min":32,"x_max":1075,"o":"m 225 1135 l 772 1135 q 1011 1058 933 1135 l 1011 1058 q 1075 893 1075 996 l 1075 893 q 1071 842 1075 867 l 1071 842 q 965 632 1053 728 l 965 632 q 771 483 894 554 l 771 483 q 881 232 814 358 l 881 232 q 1024 0 940 118 l 1024 0 l 747 -172 q 557 164 642 -26 l 557 164 q 424 535 481 335 l 424 535 q 603 653 513 593 l 603 653 q 729 808 718 739 l 729 808 q 699 868 736 851 l 699 868 q 618 879 672 879 l 618 879 l 597 879 l 115 879 l 225 1135 z m 463 844 l 329 0 l 32 0 l 165 844 l 463 844 z "},"S":{"ha":778,"x_min":17,"x_max":800,"o":"m 771 1135 l 800 879 l 550 879 l 521 879 q 457 869 476 879 q 435 842 438 860 l 435 842 q 443 799 431 819 l 443 799 q 471 763 447 792 l 471 763 l 642 533 q 711 428 692 468 l 711 428 q 742 303 742 367 l 742 303 q 739 263 742 276 l 739 263 q 653 93 722 163 l 653 93 q 392 0 558 0 l 392 0 l 46 0 l 17 256 l 286 256 l 315 256 q 379 265 360 256 q 401 293 399 275 l 401 293 q 393 336 406 315 l 393 336 q 365 372 389 343 l 365 372 l 200 600 q 120 734 139 685 q 101 833 101 783 l 101 833 q 101 851 101 842 l 101 851 q 104 872 104 865 l 104 872 q 190 1042 121 972 l 190 1042 q 451 1135 285 1135 l 451 1135 l 771 1135 z "},"T":{"ha":861,"x_min":35,"x_max":965,"o":"m 936 1135 l 965 879 l 649 879 l 510 0 l 213 0 l 351 879 l 35 879 l 144 1135 l 936 1135 z "},"U":{"ha":1056,"x_min":31,"x_max":1078,"o":"m 1078 1135 l 899 0 l 417 0 q 118 99 215 0 l 118 99 q 31 351 31 188 l 31 351 q 32 407 31 388 q 40 467 33 426 l 40 467 q 104 699 58 579 l 104 699 q 211 921 143 799 l 211 921 q 343 1135 264 1014 l 343 1135 l 664 1135 q 551 951 607 1043 l 551 951 q 426 718 472 819 l 426 718 q 346 471 363 578 l 346 471 q 342 413 342 439 l 342 413 q 415 275 342 311 l 415 275 q 531 256 456 256 l 531 256 l 642 256 l 781 1135 l 1078 1135 z "},"V":{"ha":889,"x_min":69,"x_max":1038,"o":"m 388 1135 l 435 385 l 719 1135 l 1038 1135 l 549 0 l 200 0 l 69 1135 l 388 1135 z "},"W":{"ha":1444,"x_min":83,"x_max":1579,"o":"m 1579 1135 l 1113 0 l 789 0 l 758 661 l 515 0 l 192 0 l 83 1135 l 408 1135 l 428 417 l 681 1135 l 982 1135 l 1019 421 l 1254 1135 l 1579 1135 z "},"X":{"ha":889,"x_min":-119,"x_max":1024,"o":"m 432 363 l 218 0 l -119 0 l 272 594 l 85 1135 l 422 1135 l 506 822 l 686 1135 l 1024 1135 l 667 594 l 869 0 l 532 0 l 432 363 z "},"Y":{"ha":861,"x_min":58,"x_max":1022,"o":"m 1022 1135 l 581 451 l 535 161 q 529 119 531 133 l 529 119 q 524 49 524 78 l 524 49 q 528 0 524 25 l 528 0 l 231 -172 q 213 -53 213 -118 l 213 -53 q 215 5 213 -15 q 225 78 217 25 l 225 78 l 283 451 l 58 1135 l 396 1135 l 488 796 l 685 1135 l 1022 1135 z "},"Z":{"ha":806,"x_min":-89,"x_max":922,"o":"m 208 1135 l 922 1135 l 392 256 l 769 256 l 660 0 l -89 0 l 442 879 l 99 879 l 208 1135 z "},"А":{"ha":1056,"x_min":18,"x_max":1081,"o":"m 1025 844 l 892 0 l 594 0 l 651 360 l 326 360 q 319 275 319 314 l 319 275 q 337 137 319 207 q 383 0 354 67 l 383 0 l 117 -160 q 18 261 18 35 l 18 261 q 20 341 18 318 q 29 404 22 364 l 29 404 q 124 697 54 563 l 124 697 q 319 949 199 844 l 319 949 q 600 1101 446 1060 l 600 1101 q 906 1135 721 1135 l 906 1135 l 1051 1135 l 1081 879 l 847 879 q 522 785 639 879 l 522 785 q 396 615 461 735 l 396 615 l 692 615 l 728 844 l 1025 844 z "},"Б":{"ha":1083,"x_min":32,"x_max":1053,"o":"m 468 879 l 453 776 q 597 746 489 776 l 597 746 q 868 621 764 699 l 868 621 q 1014 354 1014 511 l 1014 354 q 1010 292 1014 314 l 1010 292 q 886 81 988 156 l 886 81 q 579 0 775 0 l 579 0 l 32 0 l 211 1135 l 1024 1135 l 1053 879 l 468 879 z m 411 521 l 369 256 l 540 256 q 625 264 597 256 l 625 264 q 681 324 674 279 l 681 324 q 682 346 682 332 l 682 346 q 547 489 682 439 l 547 489 q 411 521 503 506 l 411 521 z "},"В":{"ha":1083,"x_min":32,"x_max":1056,"o":"m 579 0 l 32 0 l 165 844 l 463 844 l 369 256 l 540 256 q 625 264 597 256 l 625 264 q 681 324 674 279 l 681 324 q 682 340 682 329 l 682 340 q 589 494 682 411 l 589 494 q 438 597 522 554 l 438 597 l 542 668 q 640 736 607 710 l 640 736 q 710 826 703 788 l 710 826 q 689 871 715 863 q 579 879 663 879 l 579 879 l 115 879 l 225 1135 l 761 1135 q 994 1071 921 1135 l 994 1071 q 1056 924 1056 1018 l 1056 924 q 1051 872 1056 897 l 1051 872 q 985 729 1040 796 l 985 729 q 861 617 943 679 l 861 617 q 972 488 931 561 q 1013 331 1013 415 l 1013 331 q 1008 278 1013 306 l 1008 278 q 903 90 989 161 l 903 90 q 579 0 792 0 l 579 0 z "},"Г":{"ha":806,"x_min":28,"x_max":908,"o":"m 879 1135 l 908 879 l 464 879 l 350 161 q 344 119 346 133 l 344 119 q 339 49 339 78 l 339 49 q 343 0 339 25 l 343 0 l 46 -172 q 28 -53 28 -118 l 28 -53 q 30 5 28 -15 q 40 78 32 25 l 40 78 l 207 1135 l 879 1135 z "},"Д":{"ha":1083,"x_min":-53,"x_max":1108,"o":"m 347 276 l 347 256 l 663 256 l 756 844 l 1053 844 l 960 256 l 1072 256 l 963 0 l -24 0 l -53 256 l 44 256 q 57 404 44 329 l 57 404 q 151 697 82 563 l 151 697 q 347 949 226 844 l 347 949 q 628 1101 474 1060 l 628 1101 q 933 1135 749 1135 l 933 1135 l 1079 1135 l 1108 879 l 881 879 q 514 756 649 879 l 514 756 q 357 432 390 642 l 357 432 q 349 358 350 390 q 347 276 347 326 l 347 276 z "},"Е":{"ha":889,"x_min":28,"x_max":921,"o":"m 892 1135 l 921 879 l 464 879 l 438 711 l 853 711 l 743 456 l 397 456 l 365 256 l 853 256 l 743 0 l 28 0 l 207 1135 l 892 1135 z "},"Ж":{"ha":1417,"x_min":-114,"x_max":1517,"o":"m 1517 1135 l 1208 635 l 1392 0 l 1038 0 l 889 624 l 1182 1135 l 1517 1135 z m 269 635 l 119 1135 l 454 1135 l 586 624 l 240 0 l -114 0 l 269 635 z m 788 0 l 490 0 l 669 1135 l 967 1135 l 788 0 z "},"З":{"ha":833,"x_min":-24,"x_max":824,"o":"m 203 1135 l 529 1135 q 763 1071 689 1135 l 763 1071 q 824 924 824 1018 l 824 924 q 819 872 824 897 l 819 872 q 751 726 808 796 l 751 726 q 621 606 711 676 l 621 606 q 722 485 690 538 l 722 485 q 765 333 765 414 l 765 333 q 761 281 765 308 l 761 281 q 667 97 744 172 l 667 97 q 396 0 567 0 l 396 0 l 6 0 l -24 256 l 267 256 l 299 256 q 379 265 351 256 l 379 265 q 431 322 424 281 l 431 322 q 347 474 439 381 l 347 474 q 203 597 313 508 l 203 597 l 307 668 q 406 736 372 710 l 406 736 q 475 826 468 788 l 475 826 q 454 871 481 863 q 344 879 428 879 l 344 879 l 93 879 l 203 1135 z "},"И":{"ha":1111,"x_min":31,"x_max":1121,"o":"m 31 0 l 210 1135 l 507 1135 l 446 749 l 838 1135 l 1121 1135 l 942 0 l 644 0 l 758 717 l 381 335 l 328 0 l 31 0 z "},"Й":{"ha":1111,"x_min":31,"x_max":1121,"o":"m 31 0 l 210 1135 l 507 1135 l 446 749 l 838 1135 l 1121 1135 l 942 0 l 644 0 l 758 717 l 381 335 l 328 0 l 31 0 z m 915 1343 l 915 1343 l 935 1254 q 694 1217 815 1217 l 694 1217 q 465 1254 574 1217 l 465 1254 l 513 1343 q 710 1314 599 1314 l 710 1314 q 915 1343 821 1314 z "},"К":{"ha":1000,"x_min":28,"x_max":1110,"o":"m 504 1135 l 325 0 l 28 0 l 207 1135 l 504 1135 z m 1110 1135 l 760 635 l 985 0 l 631 0 l 426 624 l 775 1135 l 1110 1135 z "},"Л":{"ha":1056,"x_min":18,"x_max":1081,"o":"m 383 0 l 383 0 l 117 -160 q 18 261 18 35 l 18 261 q 20 341 18 318 q 29 404 22 364 l 29 404 q 124 697 54 563 l 124 697 q 319 949 199 844 l 319 949 q 600 1101 446 1060 l 600 1101 q 906 1135 721 1135 l 906 1135 l 1051 1135 l 1081 879 l 853 879 q 486 756 621 879 l 486 756 q 329 432 363 642 l 329 432 q 319 304 319 369 l 319 304 q 336 143 319 218 q 383 0 353 68 z m 1025 844 l 892 0 l 594 0 l 728 844 l 1025 844 z "},"М":{"ha":1250,"x_min":29,"x_max":1261,"o":"m 1261 1135 l 1082 0 l 785 0 l 893 686 l 613 381 l 438 686 l 326 0 l 29 0 l 208 1135 l 490 1135 l 679 801 l 979 1135 l 1261 1135 z "},"Н":{"ha":1111,"x_min":32,"x_max":1118,"o":"m 1118 1135 l 939 0 l 642 0 l 724 521 l 411 521 l 354 161 q 349 119 350 133 l 349 119 q 343 49 343 78 l 343 49 q 347 0 343 25 l 347 0 l 50 -172 q 32 -53 32 -118 l 32 -53 q 34 5 32 -15 q 44 78 36 25 l 44 78 l 211 1135 l 508 1135 l 453 776 l 765 776 l 821 1135 l 1118 1135 z "},"О":{"ha":1111,"x_min":71,"x_max":1124,"o":"m 82 708 l 82 708 q 240 1026 114 914 l 240 1026 q 669 1160 390 1160 l 669 1160 q 1025 1058 911 1160 l 1025 1058 q 1124 808 1124 971 l 1124 808 q 1115 708 1124 761 l 1115 708 q 913 229 1072 444 l 913 229 q 482 -25 724 -25 l 482 -25 q 165 164 276 -25 l 165 164 q 71 560 71 324 l 71 560 q 82 708 71 633 z m 803 694 l 803 694 q 808 757 808 726 l 808 757 q 766 863 808 832 q 628 894 724 894 l 628 894 q 462 851 517 894 q 389 694 407 807 l 389 694 q 381 575 381 636 l 381 575 q 419 341 381 439 q 525 243 458 243 l 525 243 q 692 390 606 243 q 803 694 778 536 z "},"П":{"ha":1111,"x_min":32,"x_max":1118,"o":"m 1118 1135 l 939 0 l 642 0 l 781 879 l 468 879 l 354 161 q 349 119 350 133 l 349 119 q 343 49 343 78 l 343 49 q 347 0 343 25 l 347 0 l 50 -172 q 32 -53 32 -118 l 32 -53 q 34 5 32 -15 q 44 78 36 25 l 44 78 l 211 1135 l 1118 1135 z "},"Р":{"ha":972,"x_min":32,"x_max":1014,"o":"m 369 251 l 329 0 l 32 0 l 165 844 l 463 844 l 415 544 q 585 646 513 590 l 585 646 q 700 793 690 726 l 700 793 q 701 811 701 800 l 701 811 q 636 875 701 864 l 636 875 q 568 879 613 879 l 568 879 l 115 879 l 225 1135 l 686 1135 q 943 1058 860 1135 l 943 1058 q 1014 878 1014 993 l 1014 878 q 1010 822 1014 850 l 1010 822 q 850 539 986 672 l 850 539 q 369 251 686 378 l 369 251 z "},"С":{"ha":806,"x_min":65,"x_max":860,"o":"m 776 256 l 667 0 l 615 0 q 213 168 365 0 l 213 168 q 65 574 65 329 l 65 574 q 75 690 65 633 l 75 690 q 222 999 106 883 l 222 999 q 599 1135 361 1135 l 599 1135 l 831 1135 l 860 879 l 628 879 q 493 853 544 879 l 493 853 q 375 664 396 803 l 375 664 q 371 630 372 649 q 369 594 369 611 l 369 594 q 472 353 369 443 l 472 353 q 776 256 582 256 l 776 256 z "},"Т":{"ha":861,"x_min":35,"x_max":965,"o":"m 936 1135 l 965 879 l 649 879 l 510 0 l 213 0 l 351 879 l 35 879 l 144 1135 l 936 1135 z "},"У":{"ha":861,"x_min":58,"x_max":1026,"o":"m 458 0 l 144 0 l 285 251 l 58 1135 l 403 1135 l 492 658 l 707 1135 l 1026 1135 l 458 0 z "},"Ф":{"ha":1444,"x_min":81,"x_max":1486,"o":"m 506 1135 l 1158 1135 q 1415 1058 1332 1135 l 1415 1058 q 1486 878 1486 993 l 1486 878 q 1482 822 1486 850 l 1482 822 q 1322 539 1458 672 l 1322 539 q 842 251 1158 378 l 842 251 l 801 0 l 504 0 l 544 251 q 179 507 294 364 l 179 507 q 81 765 81 628 l 81 765 q 85 822 81 794 l 85 822 q 199 1036 104 954 l 199 1036 q 506 1135 311 1135 l 506 1135 z m 638 844 l 935 844 l 888 544 q 1057 646 985 590 l 1057 646 q 1172 793 1163 726 l 1172 793 q 1174 811 1174 800 l 1174 811 q 1108 875 1174 864 l 1108 875 q 1040 879 1085 879 l 1040 879 l 543 879 q 446 868 476 879 l 446 868 q 383 793 393 849 l 383 793 q 382 776 382 788 l 382 776 q 458 639 382 711 l 458 639 q 590 544 511 589 l 590 544 l 638 844 z "},"Х":{"ha":889,"x_min":-119,"x_max":1024,"o":"m 432 363 l 218 0 l -119 0 l 272 594 l 85 1135 l 422 1135 l 506 822 l 686 1135 l 1024 1135 l 667 594 l 869 0 l 532 0 l 432 363 z "},"Ц":{"ha":1111,"x_min":32,"x_max":1118,"o":"m 982 0 l 32 0 l 211 1135 l 508 1135 l 369 256 l 682 256 l 821 1135 l 1118 1135 l 979 256 l 1092 256 l 982 0 z "},"Ч":{"ha":1000,"x_min":96,"x_max":1008,"o":"m 468 1135 l 399 696 q 396 663 396 674 l 396 663 q 463 515 396 579 l 463 515 q 600 433 514 465 l 600 433 l 711 1135 l 1008 1135 l 829 0 l 532 0 l 551 126 q 328 244 406 193 l 328 244 q 161 399 217 317 l 161 399 q 96 615 96 494 l 96 615 q 97 651 96 638 q 103 697 99 664 l 103 697 l 171 1135 l 468 1135 z "},"Ш":{"ha":1444,"x_min":32,"x_max":1453,"o":"m 842 256 l 1017 256 l 1156 1135 l 1453 1135 l 1274 0 l 32 0 l 211 1135 l 508 1135 l 369 256 l 544 256 l 683 1135 l 981 1135 l 842 256 z "},"Щ":{"ha":1444,"x_min":32,"x_max":1453,"o":"m 1317 0 l 32 0 l 211 1135 l 508 1135 l 369 256 l 544 256 l 683 1135 l 981 1135 l 842 256 l 1017 256 l 1156 1135 l 1453 1135 l 1314 256 l 1426 256 l 1317 0 z "},"Ъ":{"ha":1139,"x_min":35,"x_max":1118,"o":"m 144 1135 l 689 1135 l 649 879 q 1017 636 903 764 l 1017 636 q 1118 394 1118 522 l 1118 394 q 1114 340 1118 368 l 1114 340 q 997 113 1092 204 l 997 113 q 688 0 881 0 l 688 0 l 213 0 l 351 879 l 35 879 l 144 1135 z m 550 256 l 650 256 q 746 267 714 256 l 746 267 q 810 342 800 286 l 810 342 q 811 358 811 347 l 811 358 q 735 493 811 422 l 735 493 q 603 586 682 542 l 603 586 l 550 256 z "},"Ы":{"ha":1472,"x_min":32,"x_max":1481,"o":"m 1481 1135 l 1301 0 l 1004 0 l 1183 1135 l 1481 1135 z m 32 0 l 211 1135 l 508 1135 l 468 879 q 836 636 722 764 l 836 636 q 938 394 938 522 l 938 394 q 933 340 938 368 l 933 340 q 817 113 911 204 l 817 113 q 507 0 700 0 l 507 0 l 32 0 z m 369 256 l 469 256 q 565 267 533 256 l 565 267 q 629 342 619 286 l 629 342 q 631 358 631 347 l 631 358 q 554 493 631 422 l 554 493 q 422 586 501 542 l 422 586 l 369 256 z "},"Ь":{"ha":972,"x_min":32,"x_max":938,"o":"m 32 0 l 211 1135 l 508 1135 l 468 879 q 836 636 722 764 l 836 636 q 938 394 938 522 l 938 394 q 933 340 938 368 l 933 340 q 817 113 911 204 l 817 113 q 507 0 700 0 l 507 0 l 32 0 z m 369 256 l 469 256 q 565 267 533 256 l 565 267 q 629 342 619 286 l 629 342 q 631 358 631 347 l 631 358 q 554 493 631 422 l 554 493 q 422 586 501 542 l 422 586 l 369 256 z "},"Э":{"ha":806,"x_min":-29,"x_max":819,"o":"m 131 711 l 507 711 q 432 858 507 819 l 432 858 q 317 879 392 879 l 317 879 l 85 879 l 194 1135 l 426 1135 q 732 1032 632 1135 l 732 1032 q 819 786 819 942 l 819 786 q 811 690 819 739 l 811 690 q 554 208 767 408 l 554 208 q 51 0 333 0 l 51 0 l 0 0 l -29 256 q 233 308 118 256 q 415 456 347 360 l 415 456 l 18 456 l 131 711 z "},"Ю":{"ha":1556,"x_min":32,"x_max":1568,"o":"m 514 521 l 514 521 l 411 521 l 329 0 l 32 0 l 211 1135 l 508 1135 l 453 776 l 540 776 q 713 1049 586 953 l 713 1049 q 1114 1160 860 1160 l 1114 1160 q 1469 1058 1356 1160 l 1469 1058 q 1568 808 1568 971 l 1568 808 q 1560 708 1568 761 l 1560 708 q 1357 229 1517 444 l 1357 229 q 926 -25 1168 -25 l 926 -25 q 615 147 729 -25 l 615 147 q 514 521 514 301 z m 1247 694 l 1247 694 q 1253 757 1253 726 l 1253 757 q 1210 863 1253 832 q 1072 894 1168 894 l 1072 894 q 906 851 961 894 q 833 694 851 807 l 833 694 q 825 575 825 636 l 825 575 q 864 341 825 439 q 969 243 903 243 l 969 243 q 1136 390 1050 243 q 1247 694 1222 536 z "},"Я":{"ha":1056,"x_min":-107,"x_max":1079,"o":"m 503 1135 l 1050 1135 l 1079 879 l 597 879 q 506 874 526 879 l 506 874 q 443 808 451 860 l 443 808 q 442 792 442 803 l 442 792 q 564 614 442 717 l 564 614 q 663 535 613 574 l 663 535 q 413 164 539 329 l 413 164 q 114 -172 271 -21 l 114 -172 l -107 0 q 110 232 14 119 l 110 232 q 299 483 213 353 l 299 483 q 164 613 210 546 l 164 613 q 108 789 108 693 l 108 789 q 113 842 108 814 l 113 842 q 214 1036 132 958 l 214 1036 q 503 1135 319 1135 l 503 1135 z m 588 0 l 721 844 l 1018 844 l 885 0 l 588 0 z "},"а":{"ha":861,"x_min":33,"x_max":847,"o":"m 847 839 l 714 0 l 446 0 q 150 125 267 0 q 33 433 33 250 l 33 433 q 34 462 33 449 q 40 517 35 475 l 40 517 q 149 740 63 660 l 149 740 q 440 839 253 839 l 440 839 l 847 839 z m 483 226 l 544 613 l 458 613 q 375 599 404 613 l 375 599 q 310 497 322 572 l 310 497 q 306 451 306 474 l 306 451 q 353 301 306 365 q 483 226 401 238 l 483 226 z "},"б":{"ha":861,"x_min":40,"x_max":867,"o":"m 347 838 l 347 838 q 438 851 371 843 q 556 858 506 858 l 556 858 q 776 796 697 858 q 854 607 854 733 l 854 607 q 854 575 854 590 l 854 575 q 849 540 850 551 l 849 540 q 682 158 814 325 l 682 158 q 357 -25 536 -25 l 357 -25 q 117 118 203 -25 l 117 118 q 40 439 40 246 l 40 439 q 40 481 40 464 q 46 540 40 499 l 46 540 q 121 922 76 793 l 121 922 q 285 1161 178 1086 l 285 1161 q 604 1243 401 1243 l 604 1243 l 836 1243 l 867 1001 l 635 1001 q 418 958 475 1001 l 418 958 q 347 838 367 919 z m 572 517 l 572 517 q 575 544 575 536 l 575 544 q 461 632 575 632 l 461 632 q 314 517 332 632 l 314 517 q 308 463 310 496 q 307 429 307 431 l 307 429 q 335 278 307 339 q 396 217 363 217 l 396 217 q 492 300 438 217 l 492 300 q 572 517 553 394 z "},"в":{"ha":861,"x_min":4,"x_max":831,"o":"m 4 0 l 138 839 l 593 839 q 779 785 718 839 l 779 785 q 831 664 831 739 l 831 664 q 831 649 831 656 l 831 649 q 828 632 828 638 l 828 632 q 785 533 819 581 l 785 533 q 704 456 756 494 l 704 456 q 776 360 749 414 q 803 250 803 307 l 803 250 q 803 235 803 242 l 803 235 q 800 218 800 224 l 800 218 q 711 69 786 126 l 711 69 q 458 0 621 0 l 458 0 l 4 0 z m 368 613 l 307 226 l 436 226 q 511 268 503 226 l 511 268 q 478 338 515 301 l 478 338 q 429 376 463 351 l 429 376 l 353 433 q 435 485 407 467 l 435 485 q 524 572 519 543 l 524 572 q 454 613 529 613 l 454 613 l 368 613 z "},"г":{"ha":639,"x_min":10,"x_max":701,"o":"m 674 839 l 701 606 l 368 606 l 294 138 q 288 102 290 119 q 286 68 286 85 l 286 68 q 293 15 286 38 l 293 15 l 32 -129 q 15 -62 21 -97 q 10 1 10 -26 l 10 1 q 17 79 10 38 l 17 79 l 138 839 l 674 839 z "},"д":{"ha":861,"x_min":-46,"x_max":851,"o":"m 851 839 l 754 226 l 844 226 l 743 0 l -15 0 l -46 226 l 32 226 q 33 252 32 240 q 39 306 33 264 l 39 306 q 108 518 57 419 l 108 518 q 258 703 165 626 l 258 703 q 475 815 357 785 l 475 815 q 706 839 567 839 l 706 839 l 851 839 z m 486 226 l 546 601 q 385 511 444 578 q 307 325 326 444 l 307 325 q 300 250 300 283 l 300 250 q 301 226 301 233 l 301 226 l 486 226 z "},"е":{"ha":806,"x_min":33,"x_max":818,"o":"m 710 226 l 607 0 l 446 0 q 150 125 267 0 q 33 433 33 250 l 33 433 q 34 462 33 449 q 40 517 35 475 l 40 517 q 172 778 71 697 q 479 858 274 858 l 479 858 l 535 858 q 769 796 700 858 l 769 796 q 818 679 818 753 l 818 679 q 815 644 818 658 q 813 626 813 631 l 813 626 q 679 396 793 501 l 679 396 q 449 242 594 317 l 449 242 q 530 229 488 232 q 604 226 572 226 l 604 226 l 710 226 z m 460 632 l 460 632 q 311 507 331 632 l 311 507 q 307 461 307 483 l 307 461 q 308 439 307 447 q 313 407 308 431 l 313 407 q 443 482 385 440 l 443 482 q 535 589 528 542 l 535 589 q 512 627 540 622 q 460 632 483 632 z "},"ж":{"ha":1167,"x_min":-75,"x_max":1199,"o":"m 1014 467 l 1103 0 l 789 0 l 724 457 l 897 839 l 1199 839 l 1014 467 z m 161 467 l 96 839 l 397 839 l 449 457 l 239 0 l -75 0 l 161 467 z m 647 0 l 381 0 l 514 839 l 781 839 l 647 0 z "},"з":{"ha":667,"x_min":-17,"x_max":638,"o":"m 635 632 l 635 632 q 589 528 626 576 l 589 528 q 506 444 561 490 l 506 444 q 569 364 547 404 l 569 364 q 597 258 597 314 l 597 258 q 594 219 597 233 l 594 219 q 517 76 582 136 l 517 76 q 300 0 435 0 l 300 0 l 14 0 l -17 226 l 213 226 q 283 230 265 226 q 301 249 300 233 l 301 249 q 244 335 306 272 l 244 335 q 151 422 199 383 l 151 422 l 132 439 l 226 507 q 290 554 258 531 l 290 554 q 332 600 331 586 l 332 600 q 324 610 333 607 q 281 613 314 613 l 281 613 l 258 613 l 57 613 l 160 839 l 400 839 q 586 785 525 839 l 586 785 q 638 664 638 739 l 638 664 q 638 649 638 656 l 638 649 q 635 632 635 638 z "},"и":{"ha":861,"x_min":7,"x_max":856,"o":"m 856 839 l 722 0 l 296 0 q 69 74 140 0 l 69 74 q 7 260 7 138 l 7 260 q 15 350 7 301 l 15 350 q 101 600 31 454 l 101 600 q 236 839 153 706 l 236 839 l 510 839 q 431 689 469 764 l 431 689 q 349 522 371 575 l 349 522 q 300 368 310 432 l 300 368 q 296 326 296 344 l 296 326 q 342 242 296 263 l 342 242 q 463 226 376 226 l 463 226 l 492 226 l 589 839 l 856 839 z "},"й":{"ha":861,"x_min":4,"x_max":853,"o":"m 853 839 l 719 0 l 293 0 q 67 74 138 0 l 67 74 q 4 260 4 138 l 4 260 q 13 350 4 301 l 13 350 q 99 600 28 454 l 99 600 q 233 839 150 706 l 233 839 l 507 839 q 428 689 467 764 l 428 689 q 346 522 368 575 l 346 522 q 297 368 307 432 l 297 368 q 293 326 293 344 l 293 326 q 339 242 293 263 l 339 242 q 460 226 374 226 l 460 226 l 489 226 l 586 839 l 853 839 z m 743 1058 l 743 1058 l 763 969 q 522 932 643 932 l 522 932 q 293 969 401 932 l 293 969 l 340 1058 q 536 1029 426 1029 l 536 1029 q 743 1058 649 1029 z "},"к":{"ha":833,"x_min":4,"x_max":864,"o":"m 404 839 l 271 0 l 4 0 l 138 839 l 404 839 z m 864 839 l 632 471 l 768 0 l 474 0 l 346 463 l 574 839 l 864 839 z "},"л":{"ha":819,"x_min":-4,"x_max":818,"o":"m 417 0 l 511 600 q 274 325 310 553 l 274 325 q 268 250 268 290 l 268 250 q 282 135 268 189 q 325 17 296 82 l 325 17 l 83 -119 q -4 210 -4 44 l -4 210 q 4 306 -4 257 l 4 306 q 77 522 21 417 q 225 703 133 628 l 225 703 q 442 815 322 785 l 442 815 q 671 839 533 839 l 671 839 l 818 839 l 685 0 l 417 0 z "},"м":{"ha":972,"x_min":4,"x_max":963,"o":"m 963 839 l 829 0 l 563 0 l 632 436 l 456 249 l 340 436 l 271 0 l 4 0 l 138 839 l 381 839 l 515 622 l 719 839 l 963 839 z "},"н":{"ha":861,"x_min":7,"x_max":851,"o":"m 851 839 l 718 0 l 451 0 l 508 363 l 328 363 l 290 122 q 285 83 288 100 q 283 54 283 67 l 283 54 q 290 0 283 35 l 290 0 l 31 -144 q 13 -76 18 -111 q 7 -12 7 -42 l 7 -12 q 8 24 7 11 q 14 64 10 36 l 14 64 l 138 839 l 404 839 l 364 590 l 544 590 l 585 839 l 851 839 z "},"о":{"ha":861,"x_min":36,"x_max":854,"o":"m 439 858 l 556 858 q 803 769 729 858 l 803 769 q 854 607 854 707 l 854 607 q 851 572 854 596 q 849 540 849 547 l 849 540 q 682 158 814 325 l 682 158 q 357 -25 536 -25 l 357 -25 q 117 114 206 -25 l 117 114 q 36 425 36 240 l 36 425 q 38 478 36 450 q 46 540 40 507 l 46 540 q 164 769 68 686 l 164 769 q 439 858 265 858 l 439 858 z m 572 517 l 572 517 q 575 544 575 536 l 575 544 q 461 632 575 632 l 461 632 q 314 517 332 632 l 314 517 q 308 463 310 496 q 307 429 307 431 l 307 429 q 335 278 307 339 q 396 217 363 217 l 396 217 q 492 300 438 217 l 492 300 q 572 517 553 394 z "},"п":{"ha":861,"x_min":4,"x_max":818,"o":"m 138 839 l 560 839 q 758 788 699 839 q 818 624 818 736 l 818 624 q 816 578 818 604 q 808 517 814 551 l 808 517 l 726 0 l 460 0 l 535 478 q 542 551 542 529 l 542 551 q 522 600 542 588 q 440 613 503 613 l 440 613 l 368 613 l 271 0 l 4 0 l 138 839 z "},"р":{"ha":861,"x_min":-37,"x_max":851,"o":"m 142 839 l 547 839 q 786 764 710 839 l 786 764 q 851 586 851 700 l 851 586 q 851 544 851 565 l 851 544 q 846 517 847 525 l 846 517 q 674 186 815 328 l 674 186 q 272 -19 518 31 l 272 -19 l 229 -290 l -37 -290 l 142 839 z m 372 613 l 311 226 q 481 319 408 239 q 571 497 554 399 l 571 497 q 572 515 572 507 q 572 525 572 522 l 572 525 q 546 590 572 568 q 457 613 519 613 l 457 613 l 372 613 z "},"с":{"ha":639,"x_min":31,"x_max":636,"o":"m 606 839 l 636 613 l 456 613 q 372 599 401 613 l 372 599 q 307 497 319 572 l 307 497 q 305 475 306 488 q 304 456 304 463 l 304 456 q 358 296 304 365 q 494 226 411 226 l 494 226 l 589 226 l 486 0 l 443 0 q 147 125 264 0 q 31 433 31 250 l 31 433 q 31 462 31 449 q 38 517 32 475 l 38 517 q 146 740 60 660 l 146 740 q 438 839 250 839 l 438 839 l 606 839 z "},"т":{"ha":694,"x_min":-7,"x_max":754,"o":"m 726 839 l 754 607 l 507 607 l 411 0 l 144 0 l 240 607 l -7 607 l 96 839 l 726 839 z "},"у":{"ha":778,"x_min":15,"x_max":881,"o":"m 881 839 l 301 -289 l 15 -289 l 203 72 l 25 839 l 342 839 l 399 442 l 586 839 l 881 839 z "},"ф":{"ha":1306,"x_min":36,"x_max":1293,"o":"m 629 1135 l 896 1135 l 850 839 l 989 839 q 1228 764 1151 839 l 1228 764 q 1293 586 1293 700 l 1293 586 q 1293 544 1293 565 l 1293 544 q 1288 517 1289 525 l 1288 517 q 1115 186 1257 328 l 1115 186 q 714 -19 960 31 l 714 -19 l 671 -290 l 404 -290 l 447 -19 q 136 153 244 25 l 136 153 q 36 435 36 271 l 36 435 q 37 463 36 449 q 43 517 38 476 l 43 517 q 153 740 65 658 l 153 740 q 444 839 257 839 l 444 839 l 583 839 l 629 1135 z m 814 613 l 753 226 q 923 319 850 239 q 1013 497 996 399 l 1013 497 q 1015 526 1015 519 l 1015 526 q 971 601 1015 582 l 971 601 q 899 613 946 613 l 899 613 l 814 613 z m 486 226 l 547 613 l 463 613 q 357 585 392 613 q 313 497 322 557 l 313 497 q 308 451 308 474 l 308 451 q 356 301 308 365 q 486 226 404 238 l 486 226 z "},"х":{"ha":722,"x_min":-122,"x_max":811,"o":"m 386 588 l 510 839 l 811 839 l 539 449 l 706 0 l 396 0 l 340 300 l 188 0 l -122 0 l 186 449 l 39 839 l 340 839 l 386 588 z "},"ц":{"ha":861,"x_min":38,"x_max":851,"o":"m 415 226 l 488 226 l 585 839 l 851 839 l 754 226 l 846 226 l 743 0 l 296 0 q 97 51 157 0 q 38 214 38 103 l 38 214 q 47 322 38 265 l 47 322 l 129 839 l 396 839 l 319 361 q 314 320 317 340 q 311 288 311 300 l 311 288 q 332 239 311 251 q 415 226 353 226 l 415 226 z "},"ч":{"ha":806,"x_min":51,"x_max":796,"o":"m 453 363 l 453 363 l 529 839 l 796 839 l 663 0 l 394 0 l 410 97 q 139 244 204 189 l 139 244 q 51 435 51 319 l 51 435 q 58 510 51 464 l 58 510 l 111 839 l 378 839 l 325 510 q 324 499 324 504 q 324 490 324 493 l 324 490 q 368 408 324 442 l 368 408 q 453 363 386 396 z "},"ш":{"ha":1193,"x_min":38,"x_max":1185,"o":"m 1051 0 l 296 0 q 97 51 157 0 q 38 215 38 103 l 38 215 q 47 322 38 268 l 47 322 l 129 839 l 396 839 l 319 361 q 314 320 317 340 q 311 288 311 300 l 311 288 q 332 239 311 251 q 415 226 353 226 l 415 226 l 426 226 l 524 839 l 790 839 l 693 226 l 821 226 l 918 839 l 1185 839 l 1051 0 z "},"щ":{"ha":1194,"x_min":38,"x_max":1185,"o":"m 1076 0 l 296 0 q 97 51 157 0 q 38 217 38 103 l 38 217 q 47 322 38 268 l 47 322 l 129 839 l 396 839 l 319 361 q 314 320 317 340 q 311 288 311 300 l 311 288 q 332 239 311 251 q 415 226 353 226 l 415 226 l 426 226 l 524 839 l 790 839 l 693 226 l 821 226 l 918 839 l 1185 839 l 1088 226 l 1178 226 l 1076 0 z "},"ъ":{"ha":889,"x_min":-6,"x_max":853,"o":"m 96 839 l 536 839 l 506 653 q 772 488 690 569 q 853 308 853 406 l 853 308 q 849 263 853 286 l 849 263 q 753 88 832 160 l 753 88 q 510 0 657 0 l 510 0 l 138 0 l 235 613 l -6 613 l 96 839 z m 576 263 l 576 263 q 551 322 581 289 q 465 392 522 356 l 465 392 l 439 226 l 489 226 q 551 234 528 226 q 576 263 574 242 z "},"ы":{"ha":1139,"x_min":4,"x_max":1131,"o":"m 1131 839 l 997 0 l 731 0 l 864 839 l 1131 839 z m 4 0 l 138 839 l 404 839 l 374 653 q 640 488 558 569 q 721 308 721 406 l 721 308 q 717 263 721 286 l 717 263 q 621 88 700 160 l 621 88 q 378 0 525 0 l 378 0 l 4 0 z m 444 263 l 444 263 q 425 318 449 290 l 425 318 q 333 392 397 351 l 333 392 l 307 225 l 357 225 q 419 233 397 225 q 444 263 442 240 z "},"ь":{"ha":750,"x_min":4,"x_max":721,"o":"m 4 0 l 138 839 l 404 839 l 374 653 q 640 488 558 569 q 721 308 721 406 l 721 308 q 717 263 721 286 l 717 263 q 621 88 700 160 l 621 88 q 378 0 525 0 l 378 0 l 4 0 z m 444 263 l 444 263 q 425 318 449 290 l 425 318 q 333 392 397 351 l 333 392 l 307 225 l 357 225 q 419 233 397 225 q 444 263 442 240 z "},"э":{"ha":667,"x_min":-17,"x_max":658,"o":"m 261 613 l 261 613 l 57 613 l 160 839 l 347 839 q 588 764 508 839 l 588 764 q 658 576 658 697 l 658 576 q 658 543 658 560 l 658 543 q 653 506 654 518 l 653 506 q 457 153 619 299 l 457 153 q 71 0 288 0 l 71 0 l 15 0 l -17 228 l 19 226 q 192 249 136 226 l 192 249 q 286 317 229 264 l 286 317 l 10 317 l 114 544 l 376 544 q 342 604 376 590 l 342 604 q 261 613 321 613 z "},"ю":{"ha":1278,"x_min":7,"x_max":1271,"o":"m 364 590 l 472 590 q 569 758 501 693 l 569 758 q 856 858 674 858 l 856 858 l 972 858 q 1219 769 1146 858 l 1219 769 q 1271 607 1271 707 l 1271 607 q 1268 572 1271 596 q 1265 540 1265 547 l 1265 540 q 1099 158 1231 325 l 1099 158 q 774 -25 953 -25 l 774 -25 q 549 92 636 -25 l 549 92 q 454 363 469 197 l 454 363 l 328 363 l 290 122 q 285 83 288 100 q 283 54 283 67 l 283 54 q 290 0 283 32 l 290 0 l 31 -144 q 13 -78 18 -112 q 7 -14 7 -43 l 7 -14 q 14 64 7 22 l 14 64 l 138 839 l 404 839 l 364 590 z m 989 517 l 989 517 q 992 544 992 536 l 992 544 q 878 632 992 632 l 878 632 q 731 517 749 632 l 731 517 q 725 463 726 496 q 724 429 724 431 l 724 429 q 751 278 724 339 q 813 217 779 217 l 813 217 q 908 300 854 217 l 908 300 q 989 517 969 394 z "},"я":{"ha":861,"x_min":-107,"x_max":851,"o":"m 549 613 l 439 613 q 379 608 400 613 q 356 583 358 603 l 356 583 q 426 472 347 542 l 426 472 q 507 407 460 442 l 507 407 q 321 128 404 239 l 321 128 q 94 -126 222 -4 l 94 -126 l -107 19 q 49 186 -24 99 l 49 186 q 174 353 110 260 l 174 353 q 91 448 122 392 q 60 567 60 504 l 60 567 q 64 610 60 589 l 64 610 q 147 765 78 706 l 147 765 q 376 839 232 839 l 376 839 l 851 839 l 718 0 l 451 0 l 549 613 z "},"Ї":{"ha":500,"x_min":32,"x_max":636,"o":"m 508 1135 l 329 0 l 32 0 l 211 1135 l 508 1135 z m 636 1431 l 607 1243 l 422 1243 l 451 1431 l 636 1431 z m 361 1431 l 332 1243 l 147 1243 l 176 1431 l 361 1431 z "},"І":{"ha":500,"x_min":32,"x_max":508,"o":"m 508 1135 l 329 0 l 32 0 l 211 1135 l 508 1135 z "},"і":{"ha":417,"x_min":6,"x_max":451,"o":"m 406 839 l 272 0 l 6 0 l 139 839 l 406 839 z m 451 1135 l 417 908 l 150 908 l 185 1135 l 451 1135 z "},"ґ":{"ha":639,"x_min":10,"x_max":701,"o":"m 658 983 l 701 606 l 368 606 l 294 138 q 288 102 290 119 q 286 68 286 85 l 286 68 q 293 15 286 38 l 293 15 l 32 -129 q 15 -62 21 -97 q 10 1 10 -26 l 10 1 q 17 79 10 38 l 17 79 l 138 839 l 404 839 l 392 983 l 658 983 z "},"Ґ":{"ha":806,"x_min":28,"x_max":908,"o":"m 861 1307 l 908 879 l 464 879 l 350 161 q 344 119 346 133 l 344 119 q 339 49 339 78 l 339 49 q 343 0 339 25 l 343 0 l 46 -172 q 28 -53 28 -118 l 28 -53 q 30 5 28 -15 q 40 78 32 25 l 40 78 l 207 1135 l 582 1135 l 565 1307 l 861 1307 z "},"Ё":{"ha":889,"x_min":28,"x_max":921,"o":"m 892 1135 l 921 879 l 464 879 l 438 711 l 853 711 l 743 456 l 397 456 l 365 256 l 853 256 l 743 0 l 28 0 l 207 1135 l 892 1135 z m 831 1431 l 801 1243 l 617 1243 l 646 1431 l 831 1431 z m 556 1431 l 526 1243 l 342 1243 l 371 1431 l 556 1431 z "},"ё":{"ha":806,"x_min":33,"x_max":818,"o":"m 742 1135 l 713 947 l 528 947 l 557 1135 l 742 1135 z m 467 1135 l 438 947 l 253 947 l 282 1135 l 467 1135 z m 813 626 l 813 626 q 679 396 793 501 l 679 396 q 449 242 594 317 l 449 242 q 530 229 488 232 q 604 226 572 226 l 604 226 l 710 226 l 607 0 l 446 0 q 150 125 267 0 q 33 433 33 250 l 33 433 q 34 462 33 449 q 40 517 35 475 l 40 517 q 172 778 71 697 q 479 858 274 858 l 479 858 l 535 858 q 769 796 700 858 l 769 796 q 818 679 818 753 l 818 679 q 815 644 818 658 q 813 626 813 631 z m 535 589 l 535 589 q 512 627 540 622 q 460 632 483 632 l 460 632 q 311 507 331 632 l 311 507 q 307 461 307 483 l 307 461 q 308 439 307 447 q 313 407 308 431 l 313 407 q 443 482 385 440 l 443 482 q 535 589 528 542 z "},"Є":{"ha":806,"x_min":65,"x_max":860,"o":"m 776 256 l 776 256 l 667 0 l 615 0 q 213 168 365 0 l 213 168 q 65 574 65 329 l 65 574 q 75 690 65 633 l 75 690 q 222 999 106 883 l 222 999 q 599 1135 361 1135 l 599 1135 l 831 1135 l 860 879 l 628 879 q 504 858 553 879 l 504 858 q 385 711 417 819 l 385 711 l 761 711 l 793 456 l 396 456 q 532 308 435 360 q 776 256 629 256 z "},"є":{"ha":667,"x_min":29,"x_max":665,"o":"m 581 226 l 617 228 l 513 0 l 457 0 q 147 122 264 0 q 29 425 29 244 l 29 425 q 36 506 29 460 l 36 506 q 156 749 61 667 l 156 749 q 447 839 258 839 l 447 839 l 635 839 l 665 613 l 461 613 q 388 604 413 613 l 388 604 q 324 544 344 589 l 324 544 l 586 544 l 618 317 l 342 317 q 414 250 379 265 l 414 250 q 581 226 465 226 l 581 226 z "},"‘":{"ha":486,"x_min":181,"x_max":494,"o":"m 235 750 l 181 1135 l 440 1135 l 494 750 l 235 750 z "},"’":{"ha":486,"x_min":92,"x_max":525,"o":"m 525 1135 l 351 750 l 92 750 l 265 1135 l 525 1135 z "},"“":{"ha":917,"x_min":200,"x_max":876,"o":"m 617 750 l 563 1135 l 822 1135 l 876 750 l 617 750 z m 254 750 l 200 1135 l 460 1135 l 514 750 l 254 750 z "},"”":{"ha":917,"x_min":140,"x_max":936,"o":"m 574 1135 l 400 750 l 140 750 l 314 1135 l 574 1135 z m 936 1135 l 763 750 l 503 750 l 676 1135 l 936 1135 z "},"•":{"ha":667,"x_min":26,"x_max":681,"o":"m 681 839 l 593 286 l 26 286 l 114 839 l 681 839 z "},"…":{"ha":1389,"x_min":38,"x_max":1253,"o":"m 328 256 l 288 0 l 38 0 l 78 256 l 328 256 z m 790 256 l 750 0 l 500 0 l 540 256 l 790 256 z m 1253 256 l 1213 0 l 963 0 l 1003 256 l 1253 256 z "},"/":{"ha":694,"x_min":-126,"x_max":814,"o":"m 814 1135 l 104 -289 l -126 -289 l 583 1135 l 814 1135 z "},",":{"ha":417,"x_min":-101,"x_max":333,"o":"m 333 253 l 158 -132 l -101 -132 l 74 253 l 333 253 z "},".":{"ha":417,"x_min":14,"x_max":304,"o":"m 304 256 l 264 0 l 14 0 l 54 256 l 304 256 z "},"-":{"ha":444,"x_min":-11,"x_max":471,"o":"m 471 596 l 436 376 l -11 376 l 24 596 l 471 596 z "},"*":{"ha":667,"x_min":124,"x_max":678,"o":"m 531 1135 l 482 951 l 656 1031 l 678 867 l 514 832 l 604 714 l 443 608 l 381 744 l 276 608 l 149 714 l 275 832 l 124 867 l 200 1031 l 344 951 l 353 1135 l 531 1135 z "},"–":{"ha":694,"x_min":-10,"x_max":719,"o":"m 719 596 l 685 376 l -10 376 l 25 596 l 719 596 z "},"—":{"ha":1389,"x_min":-10,"x_max":1414,"o":"m 1414 596 l 1379 376 l -10 376 l 25 596 l 1414 596 z "},":":{"ha":417,"x_min":14,"x_max":397,"o":"m 397 839 l 357 583 l 107 583 l 147 839 l 397 839 z m 304 256 l 264 0 l 14 0 l 54 256 l 304 256 z "},";":{"ha":417,"x_min":-101,"x_max":422,"o":"m 333 253 l 158 -132 l -101 -132 l 74 253 l 333 253 z m 422 839 l 382 583 l 132 583 l 172 839 l 422 839 z "},"?":{"ha":889,"x_min":126,"x_max":883,"o":"m 243 1135 l 583 1135 q 810 1057 731 1135 l 810 1057 q 883 871 883 985 l 883 871 q 879 817 883 844 l 879 817 q 728 551 857 679 l 728 551 q 472 325 600 438 l 472 325 l 178 325 l 190 407 q 281 531 199 463 l 281 531 q 376 603 307 553 l 376 603 q 496 700 460 664 l 496 700 q 561 804 553 756 l 561 804 q 521 868 568 850 l 521 868 q 428 879 492 879 l 428 879 l 393 879 l 138 879 l 243 1135 z m 460 256 l 419 0 l 126 0 l 167 256 l 460 256 z "},"[":{"ha":556,"x_min":-76,"x_max":650,"o":"m 431 -254 l -76 -254 l 143 1135 l 650 1135 l 549 915 l 406 915 l 256 -35 l 399 -35 l 431 -254 z "},"]":{"ha":556,"x_min":-94,"x_max":632,"o":"m 413 -254 l -94 -254 l 7 -35 l 150 -35 l 300 915 l 157 915 l 125 1135 l 632 1135 l 413 -254 z "},"_":{"ha":694,"x_min":-110,"x_max":619,"o":"m 619 -35 l 585 -254 l -110 -254 l -75 -35 l 619 -35 z "},"`":{"ha":528,"x_min":224,"x_max":488,"o":"m 224 1135 l 429 1135 l 488 913 l 293 913 l 224 1135 z "},"{":{"ha":556,"x_min":22,"x_max":675,"o":"m 511 889 l 471 635 q 428 496 456 539 l 428 496 q 314 425 392 442 l 314 425 q 391 379 369 410 q 413 296 413 349 l 413 296 q 404 211 413 260 l 404 211 l 364 -43 q 360 -72 361 -58 q 358 -100 358 -86 l 358 -100 q 460 -226 358 -197 l 460 -226 l 450 -289 l 221 -289 q 97 -251 143 -289 q 50 -154 50 -212 l 50 -154 q 51 -136 50 -143 l 51 -136 l 113 242 q 117 297 117 274 l 117 297 q 95 378 117 350 q 22 421 74 407 l 22 421 q 124 483 90 440 q 169 606 157 526 l 169 606 l 229 982 q 301 1090 239 1044 q 446 1135 363 1135 l 446 1135 l 675 1135 l 665 1072 q 558 1013 592 1053 q 511 889 525 972 l 511 889 z "},"}":{"ha":556,"x_min":-125,"x_max":528,"o":"m 90 1072 l 100 1135 l 329 1135 q 453 1097 407 1135 q 500 1000 500 1058 l 500 1000 q 499 982 500 989 l 499 982 l 439 606 q 435 576 436 590 q 433 547 433 563 l 433 547 q 528 425 433 450 l 528 425 q 426 363 460 406 q 382 242 393 321 l 382 242 l 321 -136 q 249 -244 311 -199 q 104 -289 188 -289 l 104 -289 l -125 -289 l -115 -226 q -8 -166 -42 -207 q 39 -43 26 -125 l 39 -43 l 79 211 q 122 350 94 307 l 122 350 q 236 421 158 404 l 236 421 q 159 467 181 436 q 138 550 138 497 l 138 550 q 146 635 138 586 l 146 635 l 186 889 q 192 947 192 918 l 192 947 q 168 1027 192 999 q 90 1072 144 1056 l 90 1072 z "},"Ђ":{"ha":1167,"x_min":35,"x_max":1088,"o":"m 1082 200 l 1082 200 q 938 -101 1051 14 q 578 -314 824 -217 l 578 -314 l 496 -82 q 704 39 647 -15 l 704 39 q 786 208 768 100 l 786 208 q 789 238 789 228 l 789 238 q 721 376 789 315 l 721 376 q 582 456 667 425 l 582 456 l 510 0 l 213 0 l 351 879 l 35 879 l 144 1135 l 936 1135 l 965 879 l 649 879 l 631 763 q 856 644 774 697 l 856 644 q 1022 490 965 574 l 1022 490 q 1088 276 1088 396 l 1088 276 q 1088 239 1088 257 l 1088 239 q 1082 200 1083 213 z "},"Ѓ":{"ha":806,"x_min":28,"x_max":908,"o":"m 879 1135 l 908 879 l 464 879 l 350 161 q 344 119 346 133 l 344 119 q 339 49 339 78 l 339 49 q 343 0 339 25 l 343 0 l 46 -172 q 28 -53 28 -118 l 28 -53 q 30 5 28 -15 q 40 78 32 25 l 40 78 l 207 1135 l 879 1135 z m 569 1431 l 775 1431 l 636 1208 l 442 1208 l 569 1431 z "},"Ќ":{"ha":1000,"x_min":28,"x_max":1110,"o":"m 504 1135 l 325 0 l 28 0 l 207 1135 l 504 1135 z m 1110 1135 l 760 635 l 985 0 l 631 0 l 426 624 l 775 1135 l 1110 1135 z m 631 1431 l 836 1431 l 697 1208 l 503 1208 l 631 1431 z "},"Ћ":{"ha":1167,"x_min":35,"x_max":1088,"o":"m 582 456 l 582 456 l 510 0 l 213 0 l 351 879 l 35 879 l 144 1135 l 936 1135 l 965 879 l 649 879 l 631 763 q 856 644 781 694 l 856 644 q 1022 490 967 572 l 1022 490 q 1088 274 1088 394 l 1088 274 q 1081 192 1088 240 l 1081 192 l 1050 0 l 753 0 l 783 193 q 786 228 786 218 l 786 228 q 719 374 786 310 l 719 374 q 582 456 667 425 z "},"Џ":{"ha":1111,"x_min":32,"x_max":1118,"o":"m 310 -172 l 338 0 l 32 0 l 211 1135 l 508 1135 l 369 256 l 682 256 l 821 1135 l 1118 1135 l 939 0 l 633 0 l 606 -172 l 310 -172 z "},"ђ":{"ha":861,"x_min":4,"x_max":810,"o":"m 485 207 l 526 478 q 533 551 533 529 l 533 551 q 514 600 533 588 q 432 613 494 613 l 432 613 l 368 613 l 271 0 l 4 0 l 149 915 l 103 915 l 138 1135 l 697 1135 l 663 915 l 415 915 l 404 839 l 551 839 q 750 788 690 839 q 810 624 810 736 l 810 624 q 808 578 810 604 q 800 517 806 551 l 800 517 l 746 178 q 650 -108 719 7 l 650 -108 q 468 -312 593 -203 l 468 -312 l 283 -162 q 416 -2 368 -87 q 485 207 464 83 l 485 207 z "},"ќ":{"ha":833,"x_min":4,"x_max":864,"o":"m 404 839 l 271 0 l 4 0 l 138 839 l 404 839 z m 864 839 l 632 471 l 768 0 l 474 0 l 346 463 l 574 839 l 864 839 z m 479 1135 l 685 1135 l 546 913 l 351 913 l 479 1135 z "},"ћ":{"ha":861,"x_min":4,"x_max":810,"o":"m 138 1135 l 697 1135 l 663 915 l 415 915 l 404 839 l 551 839 q 750 788 690 839 q 810 624 810 736 l 810 624 q 808 578 810 604 q 800 517 806 551 l 800 517 l 718 0 l 451 0 l 526 478 q 533 551 533 529 l 533 551 q 514 600 533 588 q 432 613 494 613 l 432 613 l 368 613 l 271 0 l 4 0 l 149 915 l 103 915 l 138 1135 z "}," ":{"ha":347,"x_min":null,"x_max":null,"o":""},"Ў":{"ha":861,"x_min":58,"x_max":1026,"o":"m 458 0 l 144 0 l 285 251 l 58 1135 l 403 1135 l 492 658 l 707 1135 l 1026 1135 l 458 0 z m 783 1343 l 783 1343 l 803 1254 q 563 1217 683 1217 l 563 1217 q 333 1254 442 1217 l 333 1254 l 381 1343 q 578 1314 467 1314 l 578 1314 q 783 1343 689 1314 z "},"ў":{"ha":778,"x_min":15,"x_max":881,"o":"m 881 839 l 301 -289 l 15 -289 l 203 72 l 25 839 l 342 839 l 399 442 l 586 839 l 881 839 z m 694 1058 l 694 1058 l 714 969 q 474 932 594 932 l 474 932 q 244 969 353 932 l 244 969 l 292 1058 q 488 1029 378 1029 l 488 1029 q 694 1058 600 1029 z "},"Ј":{"ha":639,"x_min":-89,"x_max":646,"o":"m 190 1135 l 646 1135 l 508 264 q 361 -97 471 22 l 361 -97 q -7 -314 258 -208 l -7 -314 l -89 -82 q 133 56 78 -10 q 214 276 189 122 l 214 276 l 308 879 l 81 879 l 190 1135 z "},"ј":{"ha":444,"x_min":-136,"x_max":478,"o":"m 432 839 l 326 178 q 231 -108 300 7 l 231 -108 q 49 -312 174 -203 l 49 -312 l -136 -162 q -3 -2 -51 -87 q 65 207 44 83 l 65 207 l 165 839 l 432 839 z m 478 1135 l 443 908 l 176 908 l 211 1135 l 478 1135 z "},"Ѕ":{"ha":778,"x_min":17,"x_max":800,"o":"m 771 1135 l 800 879 l 550 879 l 521 879 q 457 869 476 879 q 435 842 438 860 l 435 842 q 443 799 431 819 l 443 799 q 471 763 447 792 l 471 763 l 642 533 q 711 428 692 468 l 711 428 q 742 303 742 367 l 742 303 q 739 263 742 276 l 739 263 q 653 93 722 163 l 653 93 q 392 0 558 0 l 392 0 l 46 0 l 17 256 l 286 256 l 315 256 q 379 265 360 256 q 401 293 399 275 l 401 293 q 393 336 406 315 l 393 336 q 365 372 389 343 l 365 372 l 200 600 q 120 734 139 685 q 101 833 101 783 l 101 833 q 101 851 101 842 l 101 851 q 104 872 104 865 l 104 872 q 190 1042 121 972 l 190 1042 q 451 1135 285 1135 l 451 1135 l 771 1135 z "},"ѕ":{"ha":611,"x_min":-7,"x_max":578,"o":"m 546 839 l 578 619 l 458 619 q 396 613 413 619 q 376 588 379 607 l 376 588 q 382 565 375 578 q 392 546 389 551 l 392 546 l 486 397 q 524 322 510 361 q 539 242 539 283 l 539 242 q 536 206 539 218 l 536 206 q 456 60 524 121 q 294 0 389 0 l 294 0 l 24 0 l -7 226 l 140 226 q 166 225 147 226 q 189 224 185 224 l 189 224 q 219 226 206 224 q 235 246 232 229 l 235 246 q 226 281 236 260 l 226 281 q 207 311 211 304 l 207 311 l 118 457 q 81 529 92 500 l 81 529 q 64 611 64 571 l 64 611 q 64 628 64 619 l 64 628 q 67 646 67 640 l 67 646 q 129 764 76 710 l 129 764 q 322 839 203 839 l 322 839 l 546 839 z "},"«":{"ha":694,"x_min":29,"x_max":694,"o":"m 379 725 l 213 486 l 290 219 l 132 153 l 29 486 l 247 801 l 379 725 z m 694 725 l 528 486 l 606 219 l 447 153 l 344 486 l 563 801 l 694 725 z "},"»":{"ha":694,"x_min":19,"x_max":679,"o":"m 407 725 l 561 801 l 679 486 l 471 153 l 335 219 l 496 486 l 407 725 z m 92 725 l 246 801 l 364 486 l 156 153 l 19 219 l 181 486 l 92 725 z "},"©":{"ha":1306,"x_min":72,"x_max":1272,"o":"m 81 568 l 81 568 q 320 986 119 813 q 767 1160 521 1160 l 767 1160 q 1129 1018 986 1160 q 1272 661 1272 876 l 1272 661 q 1271 615 1272 639 q 1265 568 1269 592 l 1265 568 q 1026 148 1225 321 q 579 -25 826 -25 l 579 -25 q 215 117 358 -25 q 72 472 72 258 l 72 472 q 81 568 72 519 z m 1106 568 l 1106 568 q 1111 636 1111 600 l 1111 636 q 1007 896 1111 792 q 742 1000 903 1000 l 742 1000 q 415 874 563 1000 q 240 568 268 747 l 240 568 q 236 534 238 553 q 235 499 235 515 l 235 499 q 339 239 235 343 q 604 135 443 135 l 604 135 q 931 262 783 135 q 1106 568 1078 389 z m 878 392 l 804 246 l 768 246 q 473 344 585 246 q 361 585 361 442 l 361 585 q 365 639 361 611 l 365 639 q 464 815 383 750 l 464 815 q 731 893 560 893 l 731 893 l 892 893 l 918 747 l 815 747 q 660 732 700 747 l 660 732 q 581 624 594 707 l 581 624 q 578 592 578 601 l 578 592 q 656 447 578 503 q 878 392 735 392 l 878 392 z "},"®":{"ha":1306,"x_min":72,"x_max":1272,"o":"m 81 568 l 81 568 q 320 986 119 813 q 767 1160 521 1160 l 767 1160 q 1129 1018 986 1160 q 1272 661 1272 876 l 1272 661 q 1271 615 1272 639 q 1265 568 1269 592 l 1265 568 q 1026 148 1225 321 q 579 -25 826 -25 l 579 -25 q 215 117 358 -25 q 72 472 72 258 l 72 472 q 81 568 72 519 z m 1106 568 l 1106 568 q 1111 636 1111 600 l 1111 636 q 1007 896 1111 792 q 742 1000 903 1000 l 742 1000 q 415 874 563 1000 q 240 568 268 747 l 240 568 q 236 534 238 553 q 235 499 235 515 l 235 499 q 339 239 235 343 q 604 135 443 135 l 604 135 q 931 262 783 135 q 1106 568 1078 389 z m 551 294 l 381 294 l 450 736 l 621 736 l 551 294 z m 482 897 l 794 897 q 932 856 888 897 l 932 856 q 968 765 968 821 l 968 765 q 967 743 968 750 l 967 743 q 908 633 957 682 l 908 633 q 797 556 871 596 l 797 556 q 860 428 824 492 q 936 317 897 365 l 936 317 l 781 228 q 679 386 725 294 q 600 583 633 478 l 600 583 q 700 644 650 614 l 700 644 q 772 726 767 690 l 772 726 q 754 757 776 751 q 696 763 732 763 l 696 763 l 422 763 l 482 897 z "},"µ":{"ha":861,"x_min":-7,"x_max":856,"o":"m 856 839 l 722 0 l 281 0 q 342 -162 281 -78 l 342 -162 l 110 -312 q 35 -181 61 -254 l 35 -181 q -7 94 -7 -67 l -7 94 q 15 350 -7 207 l 15 350 q 101 600 31 454 l 101 600 q 236 839 153 706 l 236 839 l 510 839 q 431 689 469 764 l 431 689 q 349 522 371 575 l 349 522 q 300 368 310 432 l 300 368 q 296 326 296 344 l 296 326 q 342 242 296 263 l 342 242 q 463 226 376 226 l 463 226 l 492 226 l 589 839 l 856 839 z "},"·":{"ha":417,"x_min":71,"x_max":361,"o":"m 361 615 l 321 360 l 71 360 l 111 615 l 361 615 z "},"™":{"ha":1264,"x_min":122,"x_max":1329,"o":"m 635 1135 l 656 1004 l 474 1004 l 403 563 l 232 563 l 303 1004 l 122 1004 l 182 1135 l 635 1135 z m 1329 1135 l 1239 563 l 1068 563 l 1121 890 l 963 739 l 858 890 l 806 563 l 635 563 l 725 1135 l 888 1135 l 1000 969 l 1167 1135 l 1329 1135 z "},"›":{"ha":347,"x_min":-4,"x_max":340,"o":"m 68 725 l 222 801 l 340 486 l 132 153 l -4 219 l 157 486 l 68 725 z "},"‹":{"ha":347,"x_min":21,"x_max":371,"o":"m 371 725 l 204 486 l 282 219 l 124 153 l 21 486 l 239 801 l 371 725 z "},"Њ":{"ha":1583,"x_min":32,"x_max":1547,"o":"m 979 256 l 1079 256 q 1175 267 1143 256 l 1175 267 q 1239 342 1229 286 l 1239 342 q 1240 358 1240 347 l 1240 358 q 1164 493 1240 422 l 1164 493 q 1032 586 1111 542 l 1032 586 l 979 256 z m 453 776 l 765 776 l 821 1135 l 1118 1135 l 1078 879 q 1446 636 1332 764 l 1446 636 q 1547 394 1547 522 l 1547 394 q 1543 340 1547 368 l 1543 340 q 1426 113 1521 204 l 1426 113 q 1117 0 1310 0 l 1117 0 l 642 0 l 724 521 l 411 521 l 354 161 q 349 119 350 133 l 349 119 q 343 49 343 78 l 343 49 q 347 0 343 25 l 347 0 l 50 -172 q 32 -53 32 -118 l 32 -53 q 34 5 32 -15 q 44 78 36 25 l 44 78 l 211 1135 l 508 1135 l 453 776 z "},"њ":{"ha":1222,"x_min":7,"x_max":1168,"o":"m 892 263 l 892 263 q 872 318 896 290 l 872 318 q 781 392 844 351 l 781 392 l 754 225 l 804 225 q 867 233 844 225 q 892 263 889 240 z m 364 590 l 544 590 l 585 839 l 851 839 l 821 653 q 1087 488 1006 569 q 1168 308 1168 406 l 1168 308 q 1164 263 1168 286 l 1164 263 q 1068 88 1147 160 l 1068 88 q 825 0 972 0 l 825 0 l 451 0 l 508 363 l 328 363 l 290 122 q 286 90 288 106 q 285 54 285 75 l 285 54 q 285 33 285 42 q 290 0 285 24 l 290 0 l 31 -144 q 13 -78 18 -112 q 7 -14 7 -43 l 7 -14 q 14 64 7 22 l 14 64 l 138 839 l 404 839 l 364 590 z "},"Љ":{"ha":1528,"x_min":18,"x_max":1500,"o":"m 932 256 l 1032 256 q 1128 267 1096 256 l 1128 267 q 1192 342 1182 286 l 1192 342 q 1193 358 1193 347 l 1193 358 q 1114 475 1193 418 l 1114 475 q 979 551 1106 481 l 979 551 l 932 256 z m 594 0 l 732 869 q 454 722 557 840 l 454 722 q 329 432 357 611 l 329 432 q 319 304 319 369 l 319 304 q 336 143 319 218 q 383 0 353 68 l 383 0 l 117 -160 q 18 261 18 35 l 18 261 q 20 341 18 318 q 29 404 22 364 l 29 404 q 124 697 54 563 l 124 697 q 319 949 199 844 l 319 949 q 600 1101 446 1060 l 600 1101 q 906 1135 721 1135 l 906 1135 l 1071 1135 l 1025 844 q 1397 615 1286 726 l 1397 615 q 1500 392 1500 513 l 1500 392 q 1496 340 1500 365 l 1496 340 q 1379 113 1474 204 l 1379 113 q 1069 0 1263 0 l 1069 0 l 594 0 z "},"љ":{"ha":1167,"x_min":-4,"x_max":1135,"o":"m 858 263 l 858 263 q 839 318 863 290 l 839 318 q 747 392 811 351 l 747 392 l 721 225 l 771 225 q 833 233 811 225 q 858 263 856 240 z m 418 0 l 511 600 q 274 325 310 553 l 274 325 q 268 250 268 290 l 268 250 q 282 135 268 189 q 325 17 296 82 l 325 17 l 83 -119 q -4 208 -4 42 l -4 208 q 4 306 -4 256 l 4 306 q 77 522 21 417 q 225 703 133 628 l 225 703 q 442 815 322 785 l 442 815 q 671 839 533 839 l 671 839 l 818 839 l 788 653 q 1053 488 972 569 q 1135 308 1135 406 l 1135 308 q 1131 263 1135 286 l 1131 263 q 1035 88 1114 160 l 1035 88 q 792 0 939 0 l 792 0 l 418 0 z "},"џ":{"ha":861,"x_min":38,"x_max":851,"o":"m 201 -144 l 224 4 q 81 67 125 17 q 38 215 38 118 l 38 215 q 47 322 38 268 l 47 322 l 129 839 l 396 839 l 319 361 q 314 319 317 339 q 311 289 311 300 l 311 289 q 328 240 311 254 q 393 226 346 226 l 393 226 q 479 256 457 226 l 479 256 q 508 361 496 278 l 508 361 l 585 839 l 851 839 l 769 322 q 685 97 744 169 l 685 97 q 490 4 619 19 l 490 4 l 468 -144 l 201 -144 z "},"ѓ":{"ha":639,"x_min":10,"x_max":701,"o":"m 428 1135 l 633 1135 l 494 913 l 300 913 l 428 1135 z m 674 839 l 701 606 l 368 606 l 294 138 q 288 102 290 119 q 286 68 286 85 l 286 68 q 293 15 286 38 l 293 15 l 32 -129 q 15 -62 21 -97 q 10 1 10 -26 l 10 1 q 17 79 10 38 l 17 79 l 138 839 l 674 839 z "},"‚":{"ha":556,"x_min":0,"x_max":435,"o":"m 435 253 l 260 -132 l 0 -132 l 175 253 l 435 253 z "},"„":{"ha":917,"x_min":0,"x_max":797,"o":"m 435 256 l 260 -129 l 0 -129 l 175 256 l 435 256 z m 797 256 l 622 -129 l 363 -129 l 538 256 l 797 256 z "},"№":{"ha":1639,"x_min":31,"x_max":1718,"o":"m 1444 1160 l 1521 1160 q 1685 1103 1636 1160 l 1685 1103 q 1718 1003 1718 1064 l 1718 1003 q 1715 969 1718 981 l 1715 969 q 1610 740 1693 840 l 1610 740 q 1400 629 1515 629 l 1400 629 q 1240 714 1299 629 l 1240 714 q 1188 904 1188 790 l 1188 904 q 1193 969 1188 942 l 1193 969 q 1267 1106 1207 1057 l 1267 1106 q 1444 1160 1333 1160 l 1444 1160 z m 1536 954 l 1536 954 q 1538 971 1538 960 l 1538 971 q 1463 1024 1538 1024 l 1463 1024 q 1367 954 1378 1024 l 1367 954 q 1363 904 1363 929 l 1363 904 q 1381 813 1363 850 q 1422 775 1400 775 l 1422 775 q 1483 825 1449 775 l 1483 825 q 1536 954 1525 883 z m 1146 569 l 1635 569 l 1613 433 l 1124 433 l 1146 569 z m 1121 1135 l 942 0 l 644 0 l 697 335 l 444 717 l 328 0 l 31 0 l 210 1135 l 493 1135 l 763 749 l 824 1135 l 1121 1135 z "},"ї":{"ha":417,"x_min":6,"x_max":547,"o":"m 406 839 l 272 0 l 6 0 l 139 839 l 406 839 z m 547 1135 l 518 947 l 333 947 l 363 1135 l 547 1135 z m 272 1135 l 243 947 l 58 947 l 88 1135 l 272 1135 z "},"+":{"ha":444,"x_min":-11,"x_max":471,"o":"m 157 704 l 376 704 l 357 596 l 471 596 l 436 376 l 319 376 l 301 267 l 82 267 l 100 376 l -11 376 l 24 596 l 138 596 l 157 704 z "},"=":{"ha":444,"x_min":-11,"x_max":471,"o":"m 471 596 l 436 376 l -11 376 l 24 596 l 471 596 z m 471 278 l 436 58 l -11 58 l 24 278 l 471 278 z "},"±":{"ha":444,"x_min":-11,"x_max":471,"o":"m 471 260 l 436 40 l -11 40 l 24 260 l 471 260 z m 157 801 l 376 801 l 357 693 l 471 693 l 436 474 l 319 474 l 301 364 l 82 364 l 100 474 l -11 474 l 24 693 l 138 693 l 157 801 z "}}}
